<mxfile host="Electron" modified="2023-12-19T18:50:09.944Z" agent="Mozilla/5.0 (X11; Linux x86_64) AppleWebKit/537.36 (KHTML, like Gecko) draw.io/22.0.3 Chrome/114.0.5735.289 Electron/25.8.4 Safari/537.36" etag="K8IFguyqQHYYthed8wLx" version="22.0.3" type="device">
  <diagram id="XaOqqX0jX4b5sjZWP1gz" name="Pagina-1">
    <mxGraphModel dx="463" dy="266" grid="1" gridSize="10" guides="1" tooltips="1" connect="1" arrows="1" fold="1" page="1" pageScale="1" pageWidth="1169" pageHeight="827" math="0" shadow="0">
      <root>
        <mxCell id="0" />
        <mxCell id="1" parent="0" />
        <mxCell id="nIec03bCgh2vJCHFv9-q-1" value="iSpesa&amp;nbsp;" style="rounded=1;whiteSpace=wrap;html=1;align=right;" parent="1" vertex="1">
          <mxGeometry x="545" y="390" width="110" height="60" as="geometry" />
        </mxCell>
        <mxCell id="nIec03bCgh2vJCHFv9-q-2" value="" style="shape=image;html=1;verticalLabelPosition=bottom;verticalAlign=top;imageAspect=0;image=data:image/png,iVBORw0KGgoAAAANSUhEUgAAAMgAAADIEAIAAAByquWKAACAAElEQVR4nOydCVxUVfvH7zr7sO8iKoi4oLmjue+hppVa2aJZ2mJlWbmkAjOooJmZlm9pmv0z87VSc09zAcUFN1xAwQUERBbZYda7/T/nPszrGGKoIIv3ez6N053LnTN35v7u85zznOehNm1q3To4GJOQkJCo9xB13QGJxgauEyIwDMcFAcNoGj2r6hH2sX+UkLg/VF13QKLhIQg4jmEyGfrXakVSA885DsM4ThClKC8P/ZOdLQgMYzCwLPoLhFpNUYKgUqH9HR0JgiQJvSDwvMs3BEEQ9jIH+8MxCcL2rtRdv9iKdxQEgSAq9xAgSSEC0xEErsf1sL9tO/qPZdFf8/ydv7cXUPvjSNQHJMGS+DcOYf0xDI8V+tk20BSmFwTDTAwjIm/cYOZaLampSBKypmA6hrkSYu5aXp5TbnjPNAv/CtPheo1GFqVczPP0QkxnmFE4zTgTiQWO8zMwHaaTD6MoYqCskKbxWLkc0wmCPJqmVSpZFK4nIuXRaE+CECKECOViIhLTKRSYjj6KpA6PpWl0fMUiHMf1VXWf7S1wQk/r09zn7GdFH2GYbU9qAaZjWUdHkpTLnZ2RPHl7CxG4vk1rkiQHaZZiEeQgEDtuHo5jOkyP6Wz2o6Cr+v0kahNcGsOSqA7IsuE4hsFxkty/XxDKyv7+22SiaZ4nSYYRBKuV426KjDo76uyzZ6YVTiv8qKi1iIMIHMckwohkidyYiFrpp6jdELklUiiSL1IiUiyCXsvO5nmet9lK1SdYRCVyUgS2u4soFFqtSoVsRhwfPJiiCKJ3b2Q9enoSBE0zDLK4kLXH8/BXJGlvmUk8DiTBkvgXyEgMw3RXXuU4XL9mDccVF3Mcx8nl6NFsBpEaLfKhyCCR2ugJiB0rUioC20Ha4NXKf0UvQK3JGtQ8RGB7mchlke0iGzdu3LhhQ0FBzru331covFe5r0RSjONt28pkPP/yyxim1Xp7I+FGkoXj6FESrMeLJFgSFcB4zR37AYbFeT4hgQ9n2e+/Z+cxDLI/GAZEqpfIVyLdReq2/zXFt66ofViIGlheyB5zdCwtpSirtVUrjlMoXn9doZDJKsQrDLmlfASmIyLruu+NH+n+IFEBSBXLIkcHpCo3F2392Z+dZ7HI5SaTwQBS9ZNInEhjkirggwLU4JO+LZKenp5+7RpFlZaaTDdukKTVGhbGMKWl//d/DGOx1HV/nyzIcePc3GxGssSThm0u7M4snEwmCDwfF8cwGPb11xxnMln3FRUVFw8bNmxYaOjfImBb1XXfaxcYdxsoMlUEXNE9e7Zt27HDzU2t1mozMzmOZYs7EoeJw506EQRNg3VqC9GQZhhrHsnCeqIBS4okkUjRtCBw3J49LMtxGzdimMnk5IRkrPf+3vv7HFgvYj8G9OQAn3qBCFheXURycm7ezMo68QwfzjCHDzMMOnPITpWCIWoPaQzriQZsAZLEcY4DB+fkSYvFYuE4nieI27dv3crMhEu0iUhd97d+AUP1EyaMT3nlCkF4r3L9ZswYHFcohg+nKLkcZhXruo+NDcnCeuLAY7D+Qj9Cj+n48KzJfDjHfe3EzLVa4+NZlp1H0yRJRE4reC/n7azS6ahJUlUVo0S2bt3ZdUcX5WLTLIbZ1Y0Pt1h+as7OM5n4MORqw3mu6542HiQL64kALCmIGqIoQeDCNmywWLiw2Fgcv3vuT7KnHg6wtiC8w8vL17dJkwEDaFqtfuEFuZyiOA7HCQKmNSSH8VGQLKwnApj7gwU0+3tzYTapgrm/nJycnLy8CyKSVD0cYG2BYCEHm2H27kVnGGZa4cxLUvXoSILVyAHbCt3jCeLvv61Wnt+6lQuzWgUhNTU93d/f3z8wMCsrKyszs71IXfe3YbNSJDs7OzsvT61GNu369Waz1QorFmFIHhb3SDwckmA1EuDuDfIEFwYspsnLQ9vXrOE4o/G//8XxsjLTrPz8wsJ585YuXbIEYqmezLm/2gDs06Ui2dkZGdnZV66QpNl87RrP47gt7EHi4ZEEq5EA4yMw36dQ8DxJHjnCMBgGIY6XL/M8x5WVpafn5EwX+USkrnvdOHlPxMvLy8vDw8GBZWWyNWtYtrAQ8kNIjuGjIAWONniEcGRX0UORaGVnIytr2TIkUmfOCALL0jRyA2/eTE/PzNTr9XqdLlykrnvdmKFFIPR0owjPOzs7OAQFYZhC4Z5IHMZ0Yu6LmLruacNDsrAaMHCvJkkhQojYvRvDSkvDw61Wg6GgAL0CLomTCAyozxOp614/Kbwq4uzs7OzoqNGgb+TUKZaVlvI8GpKF1RCIwHTi/bi/7ZE8gsVguqxWXJhw6JdALsy6b++qwsLST5qudV7u/PwQehA5mPr666+/XrYsSsRTpK66X/YJaieiUXO9gJp8GGp11Z/HA9hZkMpmZ9dtnbZvz92kGSmLGjSQJGVR5M/YGziODZCsrAdDisOq19iPd9hn9Vy/nmHM5rg4QaSoqKgI2U5hYfV/ZKq3SP3M8QAJashI1GTRqD36MSHnl6+Ip2dAQPPmej1FKRc7OREEOV9KDP2gSC5hvcb+Bw3JiFesYFmT6fx5liUIiKKaMGHChIkT679UAXtEQkQOiNR1j+6gFAGJqaljgp0Fz9EtRxBMM/lwTAfrN2vqXZ4cJMGq19hnT//2W0EoK7t9m+cpymg0GktKkH3Ss+cXStTquqfVRSsSLzJYJG0CanXdrztkTkatpo6WKwLPy8vF6ZEoghAipOR/D4d0yuo1IFWbNwuCwXDpktVKEJmZxcUZGSNF/hSpKeflcQLOIMQrLdGgVtc9ukPGJNRq6miQkEetdnGRy+Vyi4XjHBzEEUmJh0ISrPqHOMQOwZ+3biEra/dulmVZcAA7dmzTpmvXH0XquqOPCrixJ4ejVtd9uUPCc6g9+nEgBfMiEa1WpXJzCwyUy2laEY3pqAU10dMnEUmw6h0wbgXBn5s2MUx5OUyKw4KPTSJ13ceapPtu1NaI1G1PYCoARrIe/WiQ9o/jSJKiLBa5nCSfeYYklUpMj+ulofaHRRKsegfPE5GCALZVYiL6f7O5rMxonCvS+BYnDxOZIlJVIYnaBnItfCrygsijHA2KcWzdunv3779rtXK5Wt2/P88rFG3aEARFQdXDmuv7k4UkWPUOvi/fV+j3ox/DGAwKhXk2y7YQ+VykrntX8wyMRc3Z2dnZyWmGyON53+Miz4uMT0FthUhnkeocgZ2L2ikRsKeC/0Dtv//dsmXjxubNtUv9/AYdoWmOe/55mYyI5OZhOi5MWvz8KEhxWPUIgkD2VHo6z2O65ctZ1jAjMzM1NT0d4tQbdzYFcMfAxqntzwsW0LciUBfnaREQr4CfUXP8GjXYH+y+HJFrIgkie0WsVsMM40wHB6/v3b6FecBnnkH21NixyA2ESo5SvFVNIVV+rkcwDJKs3Pe4MJa1LsHCBAEKfzZuqQKGiMBzmFl7uE9tX7sQtigXoUYtRA0ivyDuf5KIvwiMDE6ePHny22+jv7RasQ5is4OiKEomg6U2JCmXy2RyEUHQeim/6dQJx0kqNJQkZTI3N5omCIsFfZsKBc/juJQuuaaQLKx6BERdbd3KzDWbN2++8UZGxuLFixdHRzeUoNBHBxeBqjyQ+qbyPoljUDsRitoxESik6iICEt9SBEpFuH+L2v2DPwICAgJatIDnBtElZebC9AesLcDEEBNbKj5BcHVFr/n5IRkbfISmFQrv1Zj4DUIFIkwUOPRZzGaC4DipRnRNIVlY9QhIEVP0EYZhOnYTy1pfs7c7Hg/2cd6Pf4D/AxFw1qAnySKHRKAyM72QXiiP/qwcNUiVA/JU5exetNiqACwyJEY0XVSEYRbL2ERcr1zs8yk531YY1dGRIEgSnru4oG9JLud5m8UkTBAiiEiOw/WYzn44HawqSapqFkmw6hGQzaq4mAsTImBs5fE7gyBSkNehRAQiidQitf3u9ou0Yf0dPAchW7169eo1a/odRA1cvEd/R5A5hcLBgaZpOj/fZPJbq1nIhfmvxwhSBhms7v4LnidJWCYFNxhkRz16PySqh6T99QiOQ3fkzLesc0yml0TqqidQgw+eP3sGNQiDrI33Oi2C5EIuDxN5TWS/CCzv/kZkkEhNSVVlcFwmI0mWFSLI+bB0Bqykyo+2ArRIqnge00mx648LSbDqBXABQDrj0k+MRqPx8TuDlQGZKPgQNRcXFxc3t/8Tqanjw9H6HULt3Xffffftt6FmDxRtBXmqqfe6PzKZTKapR8uDJKpCEqx6AQzQXn2VC2MYIRyLEYQee1Cr634h1r6GWsuWLVv6+78hErA+YL2/PwQBgPO4pztqsIyZ249a5eMcFJmShRq4e7+2Qm2vGTUQx7oKi4WcChyHYUIEx3GcNOpUX5FmCesFNI2srPXrLRaLJTlZu1QWdenS+ecvjqnrfv0TsIm+FEkUsZ/svy3SdC1qHxejBsPh74uA9QRStVuk/oRrPCcSH3/mzOnTb7+tXKz5sl07cj5dK46nxKMg3UnqEWlpBGE2e3i4fVtfc8BOFLkoAuGd33333XcrV7YSgX0YERiqhzp9IFUwMnVJpP5IlT1QT5BlcX1d90SiKiTBqkdkZ2MYQahU8mj1kkc/2kmRmujXvQHRmSwCMVMgTD33oqbVarW2WcX5IjAyBfmwaq9Xj4IgkKQt2R6MKsLag7rul8QdJMGqM+wrCUKhTYZB2xQKxSKqBsJN9onU7DD5/YGRoJSUlJTLL6WmpqbeuLFNpKEUvwALi2GECI67elUQ0CPHgYjhuL14SUJWV0hxWHWMfTy0ILAsx6H/r4lBX1iXB0UQrorYByvULOAkdhDRfKn5Uq2O7xPfJz6+vmVtr4q77T5cj+uRe260btlitRJE27YkyfMvv4z28/bGMI6D+Cv7W47E40GysOoFtREPDSGRYOMsFIECEHnvoVZT7wKr80CqYEAdyog2FKmyh2WRpQvPPT0FwRY3f+uW1YrjUJJ21SqWtViuXOF5W+AoQdw7DgvkzF7UbI93Irnssd9HKrZaFZJg1Rnw04RARHsXA8epBTXnbowS+UHkqMjYcajliTzKkcHZhLzs3t7e3h4eMplMRlFh88LmhXM11f/HCSTbQ/aTbVGOPUjC5HKoob10KcuazWvWcJzRaJyB6e7+vuzlBopNgB0NN6XMNwVBiICYO9iTotB7syy6bcEjpMZ+PJ+6YSG5hPUCWALi6MiyBFHeteyT8s8wDKvBKCwYGh90GLUvpqLWvgg1LxHIWACViisvwTHMQK2kpKSktNTyueVz82wIJb2cfzk/uSBoY9DGVq3eynwr8623pk6dOvX99x/PIh6I6oLoLYiPr34eK3tSRPKmoqbsJztMDzz9s9DP/JdCyR+mGC8vmpZHEwQz12JRKjEdp/f6HsfJ+QUfChEcd/55Jozj2l3BY2VhPSLII4RtwF4v6DDM+rkg8OHxCeimdPo0H26wZmYyczGs/BkujC8T1x1+olTiOBfWdC1Ny+WtuxEEOb9HCBEpiyIdCYLjcJwPJwihHx6LYVIFQ0CKw6oXwLDu99+zrMFQ8KHzclfX0yNPDq/NOT4AFhifEYFMT2kiBpGKvi1E7dhQ1IxGo7G8vKysrMxggLSCsIDmcc79QZDq8FOoIaFt3hwG+GGOsjqhp5BfdPr06dM/+gj+Fo5TXGw0WiwkielwPXL06IUKhVxumzcsLaUoq7VZM/R8xAiKUqlUKmQHab8kCBz3XXtn1SGMSEZGms0Mg86i1Wq1Go0Y1q5dQICLy0uXBh3p3Ll8hmmWxbJt28GDly6lpGRlFRTAe+Xn03R5+ccfk6STU+fOyC5jGEyH3gHTSTaXJFj1BBCs3btZ1mLZsKGgIG9qQUFW1q23ayq/+KMANkgfEYpCzk3Tpk2bNm/++KUK6LQNtdJPSj8p/hi2IEFgWR8RKCBmvz/kBd3QCrXIyMhInQ5EysvL17dJE/SXPO/np1bT9MiRgwd36dJhc0CAl1f5DKORYXbvPn48JSU+/urVjAxBsFo5ziJy+zaOsyxy5BSKQYOcnBSLxo4lSXm0pydB0PSyZQxTVpacbDJBKRGCGD68Vy9//8mTR40KCRGT0ERQFLKnWBY5jHv2HDuWkrJq1ZYtcXEQDlJUhBzI+fNp2sHB8z+Yjg/nIzDdvRzVJw3JJaxHtGhxJ40JzLvVh6FrKHYPUuXq6urq4VFXUgXx6JlxqDk6Ojra3h1sK3jVfn+YEPgu5buUlS9tjtoctfUpsKTgETnAKtXrrw8ZglzJ1q19fGQyJCP8MCGcD7969cakwmlnz169mpmZnZ2RkZ3dunXr1q1awaJ0cKXPi3z77dqmP90uKPBZ7WLs2pXnFYqzZ3HcbNZoeF4u79Pnqaf8/ECqWJbjOE4IFwSMZ/QcxzMwzB4a+vTTQUHOzsghX7hw/foDBzQalUom27QJWdwf4ZROLY01VyAJVr0A4rBcXNDd18lJ9YXqC9FrmVRXggVyuVpkx44dO7ZvDwwMDGzV6vFLFeSrgqXgV0RAqsBK6tixY8e2be1TKkP1HShpUflo8FeQuge25OYWFt6dhaL4o7LPLJbPbny/cNeuwsKcnOzsn0Qgyr/yMYcMGbJ9yPbRo0dfH52Rne3v7+fn6YlhCoVMplLR9Pvvv/hiz54VUiWIM4N6DLPNKsLAO8Og13v3bt8eSduIEd27r1u3Z8/Zs4mJSqUgGMREzYpaObsND0m56wUwJwQORdOmSqVcDoEItZfUxR6YMYRZPygiD2EKkDjY4Sunr7VaowglUtv9AUCqQLJBqsBdys/Pzy8shCKsCQkJCUlJsGIRLCyQKljhCHWGzomAFQaC+7bIrVsFBQbDF1+sXXvo0FtvLVz4229JSVlZ2dlJL157LTsbSZXBAFLVRgRGvir3E+ZhoT+5uampGRllZWYzx02ZMmZMSAhYbcjB+7fPa7FYrQzTr1+nTs2alZUZDGazgwPLymSFhVyYVLbChiRY9QiOQ/+hez8RCYECH4nU7LvAgDpcfq+LQNo8yGienp6fn5Pj4uLv36KFQqHVqlSOjgRBUVByfaZIzfanKmD8zlEEsqeDffSlGjWI9oLSFci5c3KCiDNYvZiVlZWVmQmBsk+JwGA8pKyB7Xl5mZnXr3/wwQcfTJgAR46O/vbbY8fi4y+9mJERHBwc7Oe3VQRE/P6BIJDGGtZLFhXl5eXmFhWVltomLni+ugPmKpVKJZfDc7OZoljWMhvXcw0yTKQ2kASrHkEQyNZq3x7HqQUUhS7X337btu3XX8F2sE9eXH3ARoN1hXB5t9mE2iuvTJr04osxIp6eAQHNmzs4+Pk1aeLtjS6tCRNwXKGYMwf1YvRogqAWEISDg1oNyYthbKh2zsE/0YuAfQSSBLOTEMEPS6y9vLy8PDwgEzyU7/cQuf+RwbGFwAiwpNLSbt26evXccykpeXkwHwrzp/Yu5P2B/kAZi5074+NTUmBQvzp/C9F46H0tFtgC+eO1WlwvDbfbkMaw6hEsi2Ek2bmEGEhE3j4mCNTslPEO8/z84kNPjYgPDdrYfnNwcPPmPj5NfhATSf0Ki3iUocpQxTOmPaY95r/QD5znCwtLSkqm33jjxo3r1/Pzi4qKP0b3aD5cLndw0GiapcmiZAM7dHBx8fPzWY3rhYjm6wiCJJs0wfXUAsVsTFcRvY1hEUIEjjs44P3JYyF7BIGLPHGiGdN07ngRGC0Ch6g2zkbZJ6jhI1EDewrCX+NePPrSUc9W+a3yAwJMs0yzjDOdlzsvd1kJ4Q7wtyDuR0R6/42a71rUqnovGJ+CnBMviyDHlyAgFFaIECL48L96oDYZQ80eyDrfZLXYvkINqisuWbJkyX/+c2V8+qSCgrZtW/yf6zdcOM/fy7nDdbgOEmTj+rWOf/56ZoiLi4ODPFoWhemESIcIDMMHiDtKsiWFNdQ/KgptiiUNIEI6N5fnGSYuDset1qQkdP8uKBAEHEcOB0FAZRccFwSSVKuR+2Ff08XfH8Pkcnd3ksSwFi3Q8WQLxdrSOgzjw6GwGDoGQdgvDYGY7IrlIxGihM3HdDy/YgXDGI1ZWWg7uFEQRlBTkwMgNGCn2NcNhLJaxcVlZVbrZ5+9nNz3IIZhOj58wYJVq7ZutR8Ut69vCMcEQQkSqU4f4DhxcXFxhw/bb4foM6hTPU4EBvsXKxcrFy060OdAn4MH4TyABQprAObNe+ed559/9tlevdq0gVEqmpYtpCieF3SCgL4PgoDghjVrtm+Pj9+58/jxa9c4TqGgKLBze/WiaVwvLgKqMcGClRUV374e/YKI+chtrf/x9ZKFVe8QdGI+JgHDbQt3XFwIgqKeew790F54gaYFAWyxwkKeZ1mOQ6/Csg5nZ5KkKFjYATOPUNjCtgAE/ewZDtMJOozHdMiu+qe7UnlBLzwnSRwjybfeIklX1+nTOe727dat/f0DA8eOHT/+xRdTUhITL19+uKgxsKTmMKjZixSsTMzPLyuzWEaO7NzZ3/+55wYMaN8+IMDnacdfV6/e1vlEMRwBBsVBJkCq7ANKH7Q/QUHtfgsMjIuL87lbsGDIH73Hvn2/iEA/aZZmaVoZq4y1fXb7sFsAJKmszGy2WNLfSE25ffvWOwUflpTAq+A2/vXXsWNJSSqVTObgEBREEDzfpw/6zti5YgSWvmbyxtvy0NvKkfG8xcKFCYISw/X1XawwSbAaBjb5qCh58L9SUiBPSMA4jmWRbEG5Thi8h2ouUHkYw+4U8oSFI/ZHBnsKlvKCwEE5jIoVcARyG0X502m1BGE0Tp2K4yrVd98xjMVisRQX5+TAnOaDZoOA4InXDqCWLeLu7uPTtCnqtdnco0e7di1agEgFBvr4ODnBZY8ubi5MPMAIOA4I5VsiIFWwHQSlsnzcn05/tm/fZXtZWdmNFQb7rF533kulsn+XoqKiouKK3KqwBdYMwEzlqVOXLmVk/Prr338nJMC8pFarICmK+AHfJpPxPMcZjTClAEdG5x7DTCb0fSUno28kiCR0mE4cdX9IybL/louK0G8FbnKenuj4hZ8RkQShwjEcSpfV7/TQ9bpzEsD/qrNg/8sPIGLLpfXPUlT2e96dJ+CfGQLgRwySB8/37EE/56goli0tnTzZai0vn/iG5fOysm++4TiD4cgRZPMFBgqCWt27N5IzFxcnJy8vEKzqpAwEkYLZSQieyMsr+gjZUVYrho0c2bNny5bLln366bhx06e/8kqvXk2benio1SYT5DFFfcMi7giuQuHo6O4OlaJhHtP+vSDYNVPk/v2xDx9xWo5a9b+dbru67eq+2966XCfi5+fn5+OTlJSWZuuVj4+rq1qt1aqXyOVqtUqF4yCIMFIG+5AkSbLsjRs8z/PffGM0lpYWFgpCTYQ1wC8iJQXdytzc0C8KVrDyYQ0pt5ckWBIVVtiyZSaT1bp3L3ISiopYViZTqaxWhnFcxsy1XUIbN6K7/6xZLHv7ttmMfvSwqAjct/Hjx49/6SVYCmN/fBAye5ECxwoWxwQEeHu7u2/evHDh+PEQEe7n5+amVt8VbFmJJk3c3JycVCqlkqK2iFRlDe0Vsd8O8gSjXdCfyyLwqmoxashusrlsACwAMplMJqMRHsHlFNdNV4Q7wEQEZLuHLfZiVH3grAqCXE7Tp5/lwtBt4uEBq/nYMXRGe/SQyUgSBg1gbFS+CKZq6rttBUgu4RMNJD/59VeLhWWvXCFJs1kmMxhw3Nvby0smGzq0S5d27QwzzGbL5j0hx48n8ZmZxcUs6+urVJLktWvIpYHjwGUJw9JiSohBmpOowbIeCEeAyDJw+oqKDAazefz4wYNbtXrttWcmd+5M03gkQVTYUBVO7/0S4/n7e3u7uhYWoksZOZNVB3xs77y987ZO5IeoFYtUJWHwnAtHzfmY8zHHYzCGiOSD56HwfVMRiA4bIAKxXWCpQdiqvcP4KKjV6AxkTcF1gkBlYJTNVb//0DhM2vARRKTNdkZWFUW5uyPbDewsGOO8cIFlSXLAAJpuOEkIJcF6QoGfaG4ujhNETAxBmM0UZTIJwuDBHTp4e0+d+uqrA2AqHSOu4Tocf2X9UF3Hjmlp2dmlpX/+eejQxYuxsWfPJifD/J1KJZPRNNg4UCMH5ubsRQpZaATxwguDBrVsOWpUjx7t2rm5OThoNOxc/jQXxszjcD68Oj2H4ABfq7e3RuPiYsulUDXyaHm0LGqzabPpNyNssbfFoNKP/WKj3HdRg+dt2yJL7tSpq1dv3UJW4vHjXUUgPNVF5L9BqI2/glpNSZU9ZjMfzodznLCQXAyjijCdUpVswXawoUpLeV6lOn6cpm/ffu01nndwQNYe2FaCgM6eONappxZQFKbD9SDQNdv/mkUKa3jiEPphMXy47BjWn5z/sz/LGmceP84wFovzclmUUrly5cwZo85SFEEQBK7D9Bgm6LB/jKAQemI+ri8uLi+3WK5cSU+/ffvwkQsv3LhxdlTK+MxMLozvi+va/tb8DQ9P5O45OITsDv6jxf81ber5HwcHhUIWTdN8BB8mRAiCuK7uENb/gfI9od7o6CiKIufv2XNs6NVX//OfLVuOHtUu1S6VRZHzbZfcP0vM/xPL55bPrXOa/NDkB981RwaiJotG7c0Wb7aYHHD9x0vfnfpyAfVuTmh8bm7BB+Xl+3ufGZWenvNudnZR0dWrmW9lvpWcnDYxa4roUIUrFysXK5WaL5WL1WqNxtHxUcuICBFcmHUOO48g3JPcxmq1CcsSliWO7dzZxcXV1XsVkq3Bg1xWuLv7+qJv6q6/jMEHYEKsnj9oEZPaEMSQOFyvWKRQ4DgXlp0tRAgRx44jW/b552iaovKD8Vhc73wej0Xfh232sL4iCdYTh30MzhdfWCzl5Tk5FgvHhYaGhLRqBaNIMNEOQ/ZVjSIBtvs5SZJkYaHBQFG3pmS/k/lWx22BG5r8AJFHcBHc/zgPgChYeCSOYzqFgqJoevPm2NikpC+++PPPkyf9/R0dbUtbqgJGoCAh8nURsLBgrG1A7ODBQ47+3i46+o0bWq1CIZfDwhp0cZPkiROJiTdvfvnlL7/s24dc0by87rtD9nT88+PiDwtevIQcTqt16tQPPtDpYFzv4cawYLzMzQ3ZoJs3b936xRdlZaWlVuvatT/+uGPHN98sX75unVrt4iKXDxrk7Nykycsvy+UKBcTTrQ9gGMvngRsEgVpgP2JltaJvc9Eiq7W0dOZMuVyjoWnkHt68yYXhuK8vOb8hjGTV685J1AaEHsNslfegsBjMELq7Ozk5OMB2yCJQHYmxJXpmWY5D9pPF0rat/8+enjCvB5d6jUkVIGY7gGPCu4we3bdvmzbvvBMa2rYthA5U9acwyta9e/fuPXvaS5X9wu9hx3v0aNsW3FWSpGmSVCppmqYhsPPTT5cs+eUXkKoPPnj33ddf39Tm11YLqJ49e/bs0CE0NDS0a9fDh2Nj169/7rmRIwcMSE1NTS0sBAG6/8cCdwzEFHJ7rV+/YcPChTDq5Oio0chkc+bMmfPyy3B8NzettmnT48fROZg+3WwuL3/vPSRGBR/yPKbr2xcEFokQhLmsXMkwBgOkHkQiLAiQmV4RTRBCBMwY1uC3VEtIgvWEA3dVTBw4R47gox1LjAKrYgFK7cFxDMNxEyYMGdKt28KFb789bBgkbTEYjEZB4DgkyCAZkM1qjgjkooCkNFCCH+K2Wrf2+9HLKykpNTUvD8bsZs/++uvNm9et27z50CF4x82bN2/++uu5c/X6116jKJmMvCsGvWlTX19nZ3gVicvKla1aNWvm7p6RkZFx61ZVnyIzMzU1N/fpp59+ulOnTZs2bgwPRxaWSmW/D5IlhoHj79y5e/eSJZDXITcX9faZZ3heoZhWQNPKxbYzg+MEsX49w5jNsKVLFxynaZgXvnQJxy0WV1cMIyJhXKwWvpwaRnIJnzigykt+Ph/OzouKYlmTyWw2m3l+0qTQ0M6dwVqxzdY9biBazBY9hv1PBGE7WGv3/ytwEo1G9AnOnk1OvnXrR79t206cKP2EZdFlW1ZmNMJA+4P2zd/f379p0y1btm5dvtzT08tLrQb5qP4Rfvllw4a9e5cs+fLLDRuQGKnVSEYF4ebNmzfz8+fPj4ycMuW11159FQnuv6NQIKfu6tXk5Ly8vn379Xv9dZjimDFDq3VZUVCAXOZdu1jWaISFXEuWyOVaLbiHX32FYaWl06aJS6t1yF7lI6RId4l6iSBgOpsFBPE+DANuR92DXBhBMJuRuOTlFRVZrS1aeHs7OEBMFuxT2RKwd2DBSYRLr0eP4GBfX9dXHJb2j3kjM4xf41v5Hf39W7Ro0qRTp86dg4O9vd3dPTxwXC63jTrdunXz5q1bRUU5OXl5y5evXh0ertEoFDT9oFIFTJ78zjsjR+bl5b5XVvbNNyvdt2xBIujiguy1RYs6d+7Y0RYrXx2gD4GBrVt7eHz44UcfTZr022+bNh08GB5unm2cSdP0Qgzr0wfDKGrmTIVCoZDJkIMOUhUayvMqFctSFM+TEby+fo9b2SMJ1hMHz2M6cVmPnqIcHJC7ZBSn+2/fLi4uLa3r3iHkcpqmaasVXZKQ77xnz/btmzZ1ctJqVaoHtf5+bPbntrg4LB17FsPGjBkzZtiwMWOef75fPxh1gn3AWrn/cR5OpCof4ZNPPsHGjh037sXYQYPAuXv0Y44b98ILAwfCYPxbbzXTt/i/Z56hlcrFMDKF3EGOi4xkmJKSrl1xXKFo1YqikFPI8yTJzEEWVk2tVaxtJMF64oD6KzQtYDiO7AmKKiiQyXA8IeH69dxcyB9gteI4x8F993GObdgS3aF3DAjw83N2btECPR44EB9/7RrMXY481Wtfq1aYno/4519h95y1PHz4zMTkl2HU6emne/du06ay9Dy6GD0ojy5V9oCdFSxy/LjJVMYbjRYLyxYUILnat4/jBOH555EwDx8ul8vlMMAPIaQNRaqABmMKStQGHbbgOL0QJvgzMnJyiooyM29PLS7GxdirKqVKDCzAInAxZxb+iD93Pozn+L65uUhekPXEziMjCQLXYxHofQg96sMzz/T8Kyho8ODuuwICzp279lpOTnz85Zcy3jw1PDk5a0rxR6Wlplk4jvanaUJPkgSB63D8K4dfftm+fZzbOLdhsu7du3cP+rU6wsT15jihWiGs9QeWtVr5sBeTXkwaHCcbWrS1rKzlL9QCIaJPH3I+RX3zjSxKoXj1VVmULMpq/WfZ14YFOW6cm9u/5WaUaHyAGHmnkCR5ZNs2DLNYnJw4TqVKT89rm58/MLLrZy1bVhXYoBxO0/TRkk7l3Uwmegg1hKYfZbiWGITr8XSVSjlcLj937sqV3E1nHVNSbv3q84rbWI1GNUKplMtxHB8g2oYDMMwr2XWFRtPsDW9vlwuaZ1Uq+uhveYcOXVuzZMn6zD17LBasP8vK5fhAmeznN9ev37u3f/rwvB7Jvdm+fMeO4oVdcbmCG5iWlppaUHDs2NGjSUkzZ86e/fXXzp84O7tdbNmyZUvvVx7+Uz1eeJ7jhH7G7oZu5TuPb9zz0vHolzy1Z5zPOzvjsSSpVuOxYt60WCwGx8X/GiySYD2x2NbrQ2F0grh6lSSt1hs3cnOLi52d1WqlMiioWTN3d2SvEAQ8goSdOJGUlJU1ceKyZTt3Nm3q6KhSwZ48DwlKHrgfMWISwf4Y5ufn7e3k5O/v6+vicvHitWu3b//114kTly9brcgu8vZ2c3NwIAeTh8UMqn35g3I5SVJU9+7t2nl7Dx0aEhIUVFhYVGSxrFy5deuRIxTl7OzkxO437RH6Xb588WLm+hMnzpxJSUHu4YEDb7315ps63bp1P/20deuuXbt3nzjRq1evXh06jDrz7OmenzuMdhit0dTOma95QHwPHNi//+zZzLfiQxMTe1rUp7TahmxL3RsprOGJBqLe8/OR1CxZwrK2aB2IYILyn8HB/v5NmiQmpqZmZe3fn5CQmopetVqdnFQquRwCNdes+fzzceMgy0L1Cy7cHwh8hDG1uLiLFzMyjh1LTb19u+NWn9UOXw080nVnwHrY02q9M4cIo1cw2vXii7Nnr1vX4v/8f262rula3zWu39jPA7ZpExjYrFlwcPv2AQEwogSXPbhXO3Zs2xY/HAJBa+LT3AHittC7cOFffbVixebNMFhuPyHQtm379q1bQ7Ao7I8eiflVHfPYsbi4y5fRET7+eMQpV1c3t4lpbm5eXvU/g+iDIgnWEw0IFjyHuOe1a1nWZILKw2q1xcLzplnWOQxDL5RFUZRKRdMYxnE8r1RaLBxnMvXu3a6dvz9U34OghJoSLIiuguf2Qa0H+5weef31zR2ODEoaFxISHOzt3adPcHBQkK+vu7tabS9z4eE//LB3r49PwHq/H6OiFivfzYExLBAm+/Es2JKbm5NjMEQI4eH/8djWadu2/b3PnTt/fssWEI6a+EyIGxMzJuW+O+TYkGPv5UG5iqr2hEDWgYf79+/aNfiP9u1btnR1dXFxdYVXCwoKCwsKDh3auzcu7uDBo0cTEmD7InmrVq1bt/gZEjo2NiTBeqKxvwNDKpLsbOQobt/Oskbj6dNIwiBnvLMzchvvpFvBcYgdX7Vq9uwXXoA1d5DltKrwzgfFYDCZLJbk5PT0wkJPT1dXBweIyYJXwYaC0NBNm2Jjr1y5cCElJS2tX78OHfz8unVr29bPLysrP7+4eM+eo0cTExMSzp//5Rf4W5CqzMybN4uKEhMvXrx+/cCBQ4eOH0eu4t69sDbwS80Xqk/LHn0uzz5gAuyg999///2FC3NycnJu34bsDhABv3jx4sXR0bAnZPg6KlKdd4HsprNmBQT4+3fqhOmoBRyHN6jZv+oiCZZEBfZpSSCTaVkZz6tUPE9EWizHjrHzrNYdOwQBWQQGgyBMmTJ6dOfOUGa9NiLjQfqQvUSSsETmwoWrV7OyOnZs1crHJyDA29smJZA6ubi4rMxoPH784sXMTEhMfO7c1av5+UIESaLLl+NIsqAgPz87296uASvmpZfGjHnmGQh66NKlW7fg3xMTExNTJz5oMCdgb8ElJJw9e+NGeLhe//33kNiv6VrUdnVDLU0EktVA1rDKVYiSX0Jt3CXUIKtqv36dO7duDel9OE6r1Wg++4wkNZqgIJJEn61hrAp8OBqh0SjxcEC0u9VKELb0LGo1QZhMgoDrcf3p04Jg/lShYFmZjCRVKotl6NBu3Vq2hHV8d5y3mgNZd8i2Q8eHRMnIwmrTBlzCc59dmXlrTocOgYFNmkDGd1iuDPVpQEbBClu5ctOmw4f/yN2379y5gQN79WrXTqeLivrkEwcHJye1Gtw9e4l5M2Py5MiOLr+6uDgvRxL2ySfVj9IqLzebGQaW4Kxb99NPO3bYF8KAyonrY1Br8SZqIFjwapFI5WO23oSaKgQ1SPo8adKzz3bqdPbs1auZmahfPL9nD8+XlbVuTZKQ1ashrAp8OCTBkqigcr0cDMN0RGRWINeXm5edLezHdObZ5SXGedFR7747OI6aT/5CeFvmCAIfXhsZK8G1tA8lBTuuX79OJS3eKOlT/pRlX0ZGzruFhX/+mfpBVqlykUwmk+W8V1xsmGGaVf5Zebm3t5eXq2u/MV2uBW641Pb667diDx48+vrFt7PfeTdnsTK04/Dt3bqUTC/6qKysqCh/imEGTcujcXzq2Km/vTiw65edS1t/CAPw4rA3ZvisvNw6t/CjwsKSkqKiko9LSnJyct4rKIjFY7Az2lPqU+pLHpdfuvzS9dcHxKL2XNFzxS/Q3UT6iED1afvP6LIcNXheLlLV2Ugci5rPatRUKtViefSkGyPOdXtniea3344evX5dvYSiEkZznHVxcD5FkUewGEEgBtb0d1L3SIIlUSXiIh7dJQ9+nnUuz5tnC3N6/NU2wNv7qT9bOfistjIsz3GPfxKK54VDQoxGo1bL9cHBLX/xEtq2DQjxxmUjKYogxOH2jvmJpXHl5cl/pKcXFsYOTLh4/fWmZT5x7pa2bVsOa9ZT+5fmN2rlVy8t3bzxOIZhS21zoxiGbcew2NgjXqdOeXl5ebm7IwcMOZHZ2RVF6kdjm+7qzCkMg1qE30R9E7UqapCAWsVrfcV2XyBlIBaCGtQNqmpP40zUNB01HWVtZTIyjJw/9Hi3XYHE5neOrEr6s6CgFDMY9j3NMII8uIScTwxsWPHr1UcSLIkqgTnE3PeQtcNxPM+yQ4f26NGmTR13S8yHhYulGyGwFWwxsL+Qi8RxGo1KJZd37tymjbc3LIGufJixYwcMaN/efswLKtxAWXwYFL+zt0IRHBwc3LKlh4ejI00fPhwfn5QEdXGglOzDfRT7WjslIpX3sX6OGjx3cVGr5XL78qsjR4aEBAWtWbNr18mTV6/KZARh0mI6mlZiteGm1z2SYElUCeQJLZzGhVnnYHFoS+vWzZq5uNjnTqhv2CeigUAIq5Wbx4URBLI5cPxOKCWIGox2wSNsh8F7+2OqVEqlQgGhFbaACYIgiL17jxw5cyZtAmotfkbtQXsLWeHvv49FBJ7T9J2EyCDQsCx81aotW+LitFqSVCpvThEirHMCMVwvj37Q/tR/pLWEElUCs3TFH+O4EOHn5+Xl7Az5Eupzqjf7VDM2+0vQ2TKUwoiYfR5Um11251GzRLVYLgc5g0fItAWvgl3z0kuDBnXqBMEEh/qj9nC9pUXgeXUKvqKzr1JBH0CW0f/L5e3bt2rl6wuRcbnvPe4Eio8TSbAk7gEMokMW8LypFosQ0alTQICnJ9gXdd272kXQCbo7iQPvPAIw8xgU1KKFm1vfviEh7drFijzce9lX6ykUqbyPScS2v0ZjCweFWVSI7H/66eBgW7WeW29jOiKy4RTuejAa+Y9P4lGAsuaYjiRxPSzQgXt7XferLgHbDJziN9989tmePQ/1O9Tv2NCHO5r9GFa+SOV9mHmowXOZTKm8U/cb9QTCPsAxzMmxWo3GwmnsPCECiqfec+a3QSMJlsQ9gPp3N2+KDlS4ECEIEGtui7p60gGbCyLvqQUYVl5+QOThjgbBq9UZdHd3V6ttsf4ArC6AGLSBAwMDmzfPysJxy+fgziPHsXHdYCTBkqiS1FR2HsuqTsqG0rS3t+sKpZLniUY6Xf4wcJwQzoePGtW/f5ftE0VgAP5Bj+Pp6enp4ZE6AbXKr94Z26Io5SK5nF5o/yqO3NcI5KZyYSNGPL2v3e+321n2cgcSE7kwLkwmE8ezInB9Y7GxJMGSqJLUVC6MIJyfV8bLojQa+SK5XCyrKglWBRzHhWO6oUd7hLQKyspiGKPx5RTUHvQ4AQEBAS1bQqRV5VfLPkMNE5cgKRbL5bKou14WgzyQ3cuH9+gR/IfvGoez8uPU4Lg4IcI8Wwxs0KHvrLGEOEiCJVEBRF3BqAesJbx1iyAsFs2XKpVCIY1eVQbOlIODagm9cNiwoCB/fyjF+ijuof0QOzzPEFEoHB3d3cExv39Yie8at2+dvr58mec5zmIhCByHxeoP+ynrF5JgSdyDvDwkXVYrjuO4w1d3BoYlquL110eMCAkBWYkQqf7f2kdjLRV5TqSVyGuvTUx7M8NsLimp3uihh4ezs3YpciIJIi0N3WgaSs3B6iAJlkQFULwelkBzHGRTQlaVcvE/x00k7IHCsTAA3717y5ZNm0JamAe1s7y8fH2bNFm48MsvV6zYuzcm5tgx2P7KldD4kD1Ll86YMXw4LAKvSn4gUky7VKWiaZrGcUFIS0N2FrrtNBbrWIp0l7gLmB8sKeH5O6XV5XKKqs/R7XUMlOSIwjBs/htvPPts584nT167lpkJdtZ5EYixuiVy6dKlS8kvx8fHxx+vKJgKs4QcR5IUNW3a2LFPP92vX6dOzZpBmC6Ri+tw3NqVHfVvlhLk2fD19fR0+hrJGoalpOA4wwwbhr7Xx3Y+apVG8jEkahajEd2fkUuIYUolOV+cyH+2rntVnwHrBgJKn346ONjX99ixxMQrV5Ct9emnmLgaERMjqVxc3FeqQjp2DMj383Nx8fJydXVx0Wg0GrkcnXFImANSBamfcR2Gbh3VmOcDW8p7lcsK9RIxvWL/pCSZjKbBdqYodMNp6EmTJcGSuAvIKQrPZTJ011YskskIArte1z2rt4jzdPDUPqA0NLR7d7PZ1dXRkSBkMoVCJnN21mgoSqVSKhSpOI7NEV6ChM72B4MjwCMEfIorcLDqD0G1+MnT0/Wb/PyyMovFx8fVlaLmzTObjcYFCxQKlQr2IUmeb5grFhpkpyVqA2o+H47jZCS6/IqKIFpaEPhwmYymGotDUduAy+br67FSvSRkd3Cwq2vgL82auaxo1szrO82XmiXKRfJoQo9hQj/Yv/JKxsqLgWCpUHWAmCyVSjWcWvBhwbik3r29vLRLZVFms9XKzI2KslhMs8rKbPHvgoBFIKGFv6qtM1LTSCmSJSqAnzFkdv/jD4uF4w4exHGz+bXX+vfvsEXM5LmprvsoUV1gaXRpqdksl0+ZEhW1bp1cTpJKpbMzRVmts2fLZA4O4g2JF8KFCIIQdLi+rvtcHSQLS6ICWMbB840nZudJBuYFXVzUapadPHnEiO7d09NNpoKC7Gxku+3fzzBWK6QPalijWpJgSVRAEIJAECSJYSRpMBAEy9K01crz8miaboyZlRo3kEIH3EzI9tWxo4+Pt7dCwXEy2c6dZrPBABWSiPmYjm8wpfklwZL4F6Dic133QuJR+eyzl1/u3z83t7i4pEQQ5HKahmJuoksYWde9qy6SYElUUDkJCcs2tvord6omNiQ36FGBHF5QW2js2AEDunaFQm2nTgkCy+a9j2HsvIbiGEqCJVGBvWCZzXd+vgo5TTecO/D9gbWSKhVNP3nznrAadMKE0NCgIIUCWVgODiwrk124wHEsCwPwdd3Hf0cSLIlGDhlJELh+//6TJ69dGzNm7tz16+PiLl7MyIAYqMqRUBWR640ISPEMdpajo1KpUk2b9uKLPXqkp5eXGwwXLvDiPGHDsKafuPuMxINiNFnncGHYMWwX9sA1kOsDuW2KisyzNm06ePDCBRcXjUatjpavXx8TIxtHL6QWQB0c3zWe3zkuo2maVi8ZWzaICJytxdQj5Yq67vs/wXW4ThSgyLuDECA4oaqILfvaQkYjw7Bs9+7tfvNZ/cEHofFPXfhv6/29L7j81YMgZKOHDiHnC4KgIyIhC379C3WQ4rAk7gKSzPzwA8uazZcumc1W6xs3nn22e/fBcV27BgTUde8eBmo+ocf1eCQxn4iExS4Qc1ZebrHIZATB86Wl9vsjd4laQJIEQc6vu17fAceRzUdR1EJbyf7kZPQvWExQy8ff39vb1bVlS19fZ2eCoCgikmU57l5zfzCKB0EPyL4kyVmzvnX766+kpMJphYWffUaSanWLFhSF4xTFcQRR38a2JAtLogL4aZKkIJCkQnHHPRCrTEGK3t/qsn8PCxvGRwgRGMOzXMVQO7poBcHBQaGA8lly+V1/EIFFYPOrH19e2xB6Yj6uj6TXrPm7DxQWq2pPqOKzzk+PTfy46Y9eq5zusY8tkh6qByFZ67qz7W9e32c+FcOWv/b998gG+/JLgtBq65tUAdIYlkQF9ytV0FgG3YHKFXEsFoZhGIoiSZKsP1IFXBybNjE7G6QKJAkeMdEatN/CsixrtUYrfly3d6/92Nz9Z0V7hLTd1Lx5WZnFYisytmEDwxiN9TPtnyRYEhXAHRU5TBzn4YFcAigiZTRa5zBz67p3NQ9El928efu2wTBt2uLFu3alpKSl5ecTIjbXqW4uWfvwi9MjL1y49XblfZBI3T2vB7KVnJw2MWvKtm2HD1++rFTeqXtYFT4/eHznuKxbt8BAHx9BQE7zyZPIqL51C/UAZKv+WFuSYEnchf1sEcNYrXeyYjU25HKZjKb//PPQoYsX8/IwjGWnTl22bNu29QG7dp07V15uNFosYHM9ftkCIULuuSCYzdY55eV3rKrqQFFffLF27bZt+fmlpeXlMEtY9XsJ4Xw4ZEw1GpGTCKsON21iWYMBsndAWsf6gCRYEhXAjxrWEmo0gkCSNI2cDWRfQaaluu5hzQLzZYWF5eXl5Wo1+uQqlVJJUT802bPn5PARIz744Kefli379dejR23OY924SObZVuuDyIX9yoTY2ISE9HSQXft97C04uZyiqAUQVgqrDqGC9JUrPM9xFy4IAstClcOa/mQPgzToLlGBTbBstZ05DnK6w6uNJyu4DbA7oqPfeSc01H67wWCZbZ6E48QKKgvm4KDeNQjc4+8n5CNjt7Cs1fpgdhaG7dsXE5OQMHp0375t2sCWOwEOtu/zl5Y7d5065bzceblWC6sO4a8KCpAjuHGj1VpWFhhI015eKhWOWyx16x5KFpZEBXwYujNT8zFMiFCrKUq0KiIEwWRi9gnhEAHUmBDCBQHTmc3MHIaxzGYYhjHPQo/yodRReiHIGcNw87gw00yGYeYSelz3uEQb12ER4qiiDsNeTBo6pLtBp3sne9TZUaP693/qqeA/Ajf4rOZ5ZAHdeawsIwrFuXPXr2dkFHxQOt1sJsSYKpmMJHF9bm5hocEwKX3evLVNv/P8I/jQoaioH37Yvn3yTT2+PmCO5Z13RoxwXKZYJJcbZwoR8ujvv2fmFhWZTDiO6fAYrL8tn9fjR4rDkqiA4wiC5xUKnifJ5GTkACxfznElJb16tfs9YP1HHz1/vuvOxmdnAeBEnTqVkpKdvX79zq4nTsyf/2HByy9D6EPdfmqIw8IwPNIWPwWjbyUlJpPRuHHjvn3nz69bt3nzoUPY/+YNeZ5lWRYsZbP5xx/nzXvllaCgwEA/PyRUFPXmmxERq1bdFrG32mCecdeub7+dNq2oqLycZSdPjo7+/Xd3d1dXlap5c+RufphPLVCp6qrWoWRhSdwDSO4GOd0FwTzbZKo8DtKYAAlwdlarkVWSN9VguHIlLe3GjfrwqQUB09ukCuwos5llGUahIEmanjx51KiQkB9/1OkmT8ZEeQJry34OsajIYrE5tsuWbdiwa1dlqbJHpVIqFQoY1Ro/fvDg4GCWNZlMpqQkdMTcqYLA83U1eygJlkQFNI1+jlCZhSTRPVomE0e1wnF9w8z/XX0sFquVYVq0aNrUxcXjP/RCQTh+/MKF9PS67tcd7F0+sPhgC2R/b9fO39/DA2QLCRYExNoAIV6yZMOGI0cOHjx6NCGhslSBbdWxY0CAnx+M3ME5GT9+6NCnnnJ0VCodHZ2c0HufPcuyPG82EwTY5I/zLEiCJfEP4J7p6Ih+sugnjePoh8uF1XW/aheYBYUsDq1+9fvRZ/XBg+fPX7sGS2Hq/wyp0YhsLqjZ4+io+kK9xP7VBQt+/nn//j/+2Lv3yBHsf/V77sWoUUOH9u1bXFxWZjQiOUK/BKVSpZoyZcyYkBCDwWgUhMREIYJh5HKeR5bW476VSYIlUQG6aO+O2AGz32Ri55nNsKX+BBDWBpCAxf/nJj84OoKV8eOPO3YcP65QUBRN18/PDglz7GXDYLgT6AuWVGpqaipyb20x8feyiuDV775DsjZixAcfrFgxffrChZs2QSRXjx7Bwb6+7doFBLi4ZGVhOi4MaoM//qQ0kmBJ3AXcM2Ho3cEBx5F7YZ5tEzHkKtZ1D2sDGKsD96rbrjabmjThOHQmkpKuXy8s3Lw5NjYpSaVCslXXPf0ncIsB2YKoMZg3tN+n+sEQMLYFz2GGce7cNWv274fxr5dfHjGiQ4eS6UVF1jlbt/K81QoJtWvnk90bSbAkKrBVwbtjYWm1OE6Splkmk3k2/GQbYwAp9r9ASrjsn3rK3997VZMmHh5arUymUmHYihV//HHsmH0WLbC26ip1NHxP0BOIyH/llXnzfvoJnD6CgMz8D4P9ykR4PHfu3LlLl5KSUlPz8tq1a9LE27tLl1at3FdCttLLl3meZe0H4O8XU18TSIIlUSW+vkIESZaWmntwXNknRqNpFkFgEY0xsME+YxR2iIjFY6JlU6Y880z/mA4dAjcQkfJomWzp0g0bYvrr8fXrDw9Mm3DzZuE0gqDmi9LQH+v/uNL+4TpMR+ixCCFifcCePWfOgPuWm5ubW1DwoGGl98c+tquoyDDDPBsW8QyhQ2a2eZcPN81i5/3QhOMMhitX2Hno1maz9GqqB/dCisOSuAdwzzxzRhAYZrlzaWnJ9E1t5s4dl6TVKhRy+b2CFBsnYMXAouhZs1av3ruXJAkCQjUJonPngAAPj9mzJ0wYMMB+xSHYobbFLzXfnz17jh1LSVmwYNWqrVtrVqTs8fNr2tTdfd68iRNDQ2E4H6xsCLKdVvTNN7t2ZWeXlRmNajXPM8yMGTSt1bq64jhF1Z5skePGubl5eNTOwSUaKmBxlJWhf2MwhuEO9MfatPHzc3FxcFAq6+fwc20giPj4uLo6OHTr1rZts2YXLpw/f+1aWRnLYlheXklJWVl86KVLN2+2yfX39/FxcXF0VCqRqEGNx5oWLLmcJClqw4a9e8+evX49IyM7+1EcwPtTUlJaajRu3Xrw4KlT+/adPn3jBnKTnZ39Jnh5OTm1bOnl5eq6ZcvBgxcvcpxKpVSivvF8cDCOy2S1N9IpCZbEPbgjSDx/lOY4jgvI9PZ2dGzbtkULT0+WhYKrTwoMg6THzc3RUaEYMqR377ZtTSaTyWw+fTo5OTvbuo9lGWbPniNHLl68ciUjo6BALpfJ5HJHR7VaJlOr4VIGYREXJocL4YIg9MMHYBVnGjlTEFd1J8Gg3duLzqbQH8PwWJgPPHs2OTkn59IlJFm1J1gAHL+8vLzcYPjrr7i4hIRhw3r16tChVaumTV1d09KysvLzi4sLCkpLr19nGJbt1EkmUygcHZGdicQe9bcmb2+SYEncA/iJKRToEvubYVmTyfOyk5NK1bFjUFCTJrVhO9Rn4GwgNxBm5TCsRw9kbfXu3bFjQMDRIadH3niD3U8ewWJu3SosNBqPHTt/PjNz69a4uMuXkYzduJGdfft2cbHVyjAYpj6lilconJ9XDVcoaBrJAcTT0zRYZugStxc4chBBEIfhNXDKnJw0GqVy27aYmLNna1uw7IH5x969O2zx/9nd3S1Re6Z5c2R1/fTTli2nTqnV7u4aTU4Oz1utPXuSpFJpu6nVpGBJ2Rok7gE4fTIZ+le7FNNh2K0WeT/enfv8SQPGpGCJDCyOadHC29vBYcVHsz4dnfBH6MF+51rFxiYkXLtWXGw0Wq0yGRKTnJz8/JKSnTvz8srKtm07ejQ5ubCQwTHMf7yjjqI6dw4MbN5coVAqNRrkeMpkEP/l7OzgoFbbv3tRUWmpwQB53GGLt7e3t4dHdnZ2dl5e7Y1kVYamkQUJw+twBiZNGjOmS5edO48fv3YtKUmhoChI/ufigpxE9F/NhZdKgiVRJciKYln1EmoBOf/q9CyhQAelz+u6X3WJbcIBnRs4G8jaoah33x09umfPSZNCQ7t2vXbt5s2iouTkzMzbt5HbmJFx+XJqalYWOnMk6fU9vVCIMOqsC/j5cXFJSampOM5x6Fg4bssuj6w5lkVWFUXx4eLs23/QI8gZ7INkw8EBPSstZVmWNZsfj2z5rfVe5eKCf4WpbJFrL7wwaFCvXrt3Hz2amqpScRxJrlnDMKWl4eE07egIKQBr6t0lwZL4F1xchAiSTEgtmW60GAwmk8UC4zJ13a/6giAIOkwnZsvSg3MWEODn5+wMM2tjxvTr164dxItD/oPU128m3u5zYczVdjn+kD7w+vWbN8vKkM1msdy+bbGwrEKBJAiD6tsz7rxXYSESpaZNHR1lsoAAb2+ttnfvoKCnnrp1Kz+/uPjQobNnU1IeXbZgXaH9FlhjOG3a668PHer0i0Yjl3MYzwsVkWseHhoNz0+cOGJEx47r1u3Zc/ZsaSlyXiFKKzDQllKwJlxDKaxBomoikAP0R3tmrnVf7IDy8vKuk28+91zIntDQHiFBQRzHhQsR9rtDzixTiOkvy+fKeMUwuVzQYfrGVZS0KuzzhdmXsaicR6xyVUEunOeFCBhcR88hv9X/rJII7BDeX9BhMdgAmqYWIilAMgkFYpFE4jgbhv727NmU8Tdvzp27fPnWj0wmy+eWnrZ3vN84F7KRmLlOTo7LNJrevbvs8Pfv1Sv4j6CggICmvu4rnZy0X8mikDUnixLCBdRT+08npr7BcbTFasUiaHq588bWMf3PPJsy/tYtWZQ8mg8P20/O12o1p8XRv0f+NUiCJfEvHBnEhVksO7pY5whCQICvr1YLWTpNJoZhGFuMOFaRHI4k//zzyKCkpJEjn97XunVjzZ/1OKmQPD2mv1feV7BcwFWEpTmHByYmpqX1OdCjR7t2hw8fPnz2rP2Cm8pMSB05sk+fd7LHjevVC7aAo2cfBHr/mDL7iH+YF3znnQUL/vyzvNxqNZmGD1co5NGDBlGUcvGjnw0p0l2iSuAH6/mdIBCRZWUkyXEHD169euMGJAu2lyoYV4FV/vHxCQlpE+tDJqnGAVg0VUk/ZJg4cSIx8ebNnTtPnEhObtLEebl6ycyZo0d36bJ5c3T0G28sXTpjxmuvDRvWp0+XLvBXfft26dK5M2yffHPsxZ57OY5hYCQNwhHuTDL8+wgUjOvBI3zvY8cOGRIcDCUtsqZgGBFZU0XDpDEsiSqBdWHu3yKHQiYzW61Wd3eK0mjS0jIzCwshBxMkNoF8Bn//ffHitWsZbxZoysspCicIwmq1/ZAlS6umgRsGjI4tWbJx46FDzZu7ujo5de7c9jdfX+M19hnmLNxKINdC797t2/v5zZ79xhuDBoFFBiKFYWzY3a79owCSN2hQSEjLlhs27NiRmHj1Kh9u+RxTYFGKZY9+fMnCkvgXnFcQkUSkxQLhjzxPEEeOXLx4/br9PpCY5dixxMQbN0pLzWbrnMOHExJycuD+X1f1Zhof9msMwGWDbAqwJTm5pKS8fOixbt2CNtovZQcRARfelqteLGVvZxnV1HIre/dw3LjQ0LZtC6cxDIZBoMOjp/yTBEviX8B16P7brRuOU5RCIZfTdGxsQkJaGthWkHAGnMFz565fz8nRalVf0Av37Dl5MiEBhAzq69X152gMwNmGFYU//7x796lTGRk5OUVFEJ81aVL//q1b+/i4f6v5sqojPJ5vAoYI+vXr1KlZM5kM0+F6qHIIaf8eZWmXJFgS/wJB4HpM17atIMjlMJKVmlpUxPNXr+bk5OVBNvTk5PT0wkKIGyLno8vi4MHk5JwcyNgJUdx1/TkaNmAvwZncu/fEiZs3162LiUlOBueuY8eAAC+vCROGD+/WjQ/juLq7PYClBuG1bm4ODhqN/88+qx0dIR88pP2jaWRrPdzxJcGS+BfEKXddy5boUqFpDOM4d3elUhCOHz9zJiMD9tm378SJy5eRA2iLz3J3l8spCuoq12n3Gz5iuIP94PoXX/z66969/v6OjugcI3mYPXvChH79wJKtD6EkIFuQFd59paurRqPVchxJnjljS1pDPeToubSWUOLf6IfHYJijI4ZzHLKeiMgrq8n5/MEbb2RtKPhQOMSFkUdiYhKWXbtW+olxptX6UeFLl3p+Hpd17uO0ZikpuW2K/3RzU49QfREU5JfqOkYIxyKEQ3gMOqaYR0qiakSpYlluv9B36ZnfRx5/d+PGvZYzWrmcHkIOemprYFaTVyNj384aJnc4o4yXR3P7sRjhEDagvpxVIRzHMZ1KKY+SDY154/QHyV7JXvRR7kA3A0EoFikX4XosBosRezsAi6neMaU4LIlqAdPSUFMnKoplS0uLilhWJuN5kmQYguA4WszqYDb/978LFrx6de3aHTtODof1ZRjGMGbzsmWffjpuHKw+s1rRvrWdnbLhAqM8kJT5a6fffz82NG5wUlLaxNu3CwqMxoUL33572DCY+6vPi6VgHtNiYeZw3PPPf25dudLFxcnJy6tNG4IgyXffpSi12mqFXKXV/SVILqFEtYAVYegnyPPjxpGkWg3jWTQtCLYC7u3atWjh6YlFCOGCMHbsgAHt25eVGQxms0Kh1apU69fv2hUfD3s21tzwj4J92mUIwYXExLEDzp27dg2k6rPPXn65d2+QKvuF0PUZlUoul8lCQ7t1697dbDabef7aNZ5nmAeVKkASLIkHABKsoDskRXXtCqlWcJymjUaGsVieeqpVK19fKPzp5IRECspwWq1GI4bFxl64kJEBozDSMHxlQMTth9WnTl22bNs2hmHm8jxYVc8+26tXmzZgVdX/6DaYkeTm8TzHDR/es2dQENzADAb0qzlxAtnZDxpQWk8Fq/LEp70S2+Jv7/dB7V990L+VuD/IBeG4UaMoSqUqKoIZIYSnp4uLVmvbh2E4DuatkHVmtfr4uLjIZD/8sHlzfLzNJfz3b6FxFr24GwhTgPPx3Xdbt54/Hxn5228HDri5abVy+dP7OnRo3hysKlhjUNf9fTAgUh+WgsMnUig4TiY7cwbDTKYHPVq9EywQl7vCyyIwHbrz4LhNjyFPE0yOUhS6OAjCVqCK52ELvGoLn0MXlW0fsBLQY8WrupqL830yQGdSELKzkTOIziG62HieZT09XV0dHHhe+N+iaJjbmjp19OgePW7dKiy0WouLkb21aNG6dQcPQuhj5eXBAEgVLPVoTLIFnwUelUqapmkI/oiMXLly27a9e0+eTEz08lIqCQKyY709ZfSokD0NxaqqCkg9OGRISEhgINjjV66g7Q/qGNajWUL7TqOPh+MMg4TF2B2LwbBTpxhGEE6fJgiTae9elrVYTpxAkvT33xxnsaBHHD90CF04p0fy4ebZp78UDnEHcnIIgmXNZnSRlZbajs/zajW66FiWJAWBGiL0w/WCgMdWd6biSQcE6/hx9HPLyDCbrVYMYxiGeeut0aNDQmCWChL+ImeA41q1at7c3b2wsKjIZEpLy80tKcnOLioyGJKTb9zIyek1t2NRUBBB4APuHpGxL7jg7u7m5u2t0SgUkPeyYV60NkB20GW6fXtc3OXLCxeuX3/gADo7IEsc17lzQIC3t14/ZcqQIQ5n1SPk0UI/QWjIv08o0qtWy2QKxf79J04kJbGsTCaX+/kRBEH4+uJ49cY162wtIdg7SJLQTxN1FdlJBJGfj36M584hSTp9WhDM5ux3BIEgmJ/Rh9ZqzWYY+yAI9AzpM3IvMLFcNxy5KJ2ch3PYFYrChatXDQarVRDkcp63rWtDFoGTE5Krnj3R/a1XLwxTCp6eGMZXzLYgoxvd1f/pSEoAYPmkp+O40QhxQF5eTZq4u0MQo70tAG4Osr447v33X3qpRw/IAHXxYlpafv6lS+npeXkbN/6198Qzb7757Jnuu2EgGf4WnkPuzXHjPv981ar//Gf69NH/z951gEdVZf/Xp2cmvSekQSB0Qm9BelFU1L9gwYJld91VxErIzCShiWDBsiyKBVBs60qX3ntJ6EkI6b1N2vRX/t+dk2cehGgCAYLmfJ/D+Obl1XvPPeV3fmdq529Cv/BYzhsayW3aWxcfCJwDbwHEcWALxKcKCsrKamsXLVqxYtOmkhK7neOUSqSaCwrMZoJ4440HH4yNnThxyJAuXQBXBbwJd/qeblZAEYeHBwe7u8tcguxykjx3Ds3gvn1pGiwtkmzweJrBkt1KheVy5a6a9kY8EcPwvZgRi8vqxOuF4ZmZXILTmfUkxwlCQYFg4PUVrheE/Y/nHXODgrTvazSxm/z9PacFTPP8SH1S9S4yopVK+WLZIvVS2SJqvmwhUjryd5iFYhC3vq/V6oy3l9nf5vqbqi0W8+u1tRaL3V79Ss1su93yhs3Gzispqaw0vbz/Jcsbtre22dmttbMDZtBOkgr8jCAoyudT5H5GruX1eGJAAL2Amq99TxDwRN6AYSJvEfLLr2Y1+isIDKY6K5pGWQ52HjRowPFhw2J+jIigKPwIUlgQ5cKuoSUhCEGPYQkJz+JjDp4/n/lUcfGmTYfGpk//uefB0Zd8L9bnflG+eciQmB87dRqwJSYmONjHx8NDre7fv1u3wMDQL319tdpXXvi375YBD54dMTDGbUbGWL5fvfpd5Po74nme1zd3zZYB9rec8cqJssUia3pze0qdWSnrk3jvEtc10aWGEonka5itXMrFFs9xLGsymUz2twueLS2tfiUnt+RF08u5uSUl9a+d6puxKzsUr+Dt2AZkewZ9Pmpf95+Cgvr1jekWvMrjlHoHs5A9xg8RBD4RxzEjlnh7Oh7eWuF5pA8YhppPJj90/p57ev+yZs2OHSlTj6EFL3FSOUkqdZ6eBMHr+X3CSILA9l7/Nd1CHBbEm2w2wOhA5AgN3//4O+Y6nenTuQS05pAky1ZXI4USEqJS0fSUKWPG9Os3eHCPHsHBAO13OPgEdl5TurjWijQmAlvMZpvNZjs0NvX+vGdWBW/sd3xSQYHVynHA6IgsMqTzkQUXFSWT0fSECSSpUHT+hkjCE10rgFHsC4L9RawwWH4uX0YKa+lSjjObGcZsxvFFi158cezYyMigIHf3ltg7EFmECNcPP+wZeW7aJ5/83PPoBAjKwlu4557oaD+/Z565997Bg0tLKytraxcv/uabffvQX6EFBSmH2bOnT4+Lg4A0rOGQApBew/Ll69YdPJiampVVXNypk7+/u3toqJ+fThcY6OWl04EF5+6uUsnlyF1hGMVihiEI+Tvos+mVA2sofIeryn0aLX/p03NyysouXy4srKwsKqqsNJs1GnRMKBgXBIZBo85iwfHYTZ2/DQx82fTY5QED0B5yeXvGUt0KAd7ayZMNhh9/RAsRTU+fjtzFoUPRm+UTMCNBNGdh3UKFBZXZcjnPk2RpKXL/vv2W5+32nByeJ4jycvSyhwxBQ23y5CFDYmL69o2ODggAt0KKMbl1gUax5TdJ4onIbeH1wMa9ZcuRI+npP/10/HhuLpSheHqigVVaiuN2+/2peKJCMf4IvQDMWHEa/xUUFixC+/ejKbZunSCYzTU1lZVW63//u2DB9OlqtVIpk7WkvFasjEP7gqMEcIelS9eu3b7dbkdbYSRUV9fVORzR0WFh3t61tchWhiMALgzQSVOmDBoUHT1z5tSpI0d6eKhULAvKC66kfk59vcPx0AW9/ttvQSHCEex2pNYgXSC9NqsVLaVqNb1ALB8B2mL4rlIJQlWVTMYwHh4Nz2SBTEYm0ws4DjOis6Kxi+MyGaTw4YyDBsXEhIWNGzdyZHh4t24BAX4rYLy1N2f29ghEJ1944d13N22qqbFY6uo6dSIIgpg9m6LU6t/ngG/joLs4acWeKzx/4AByGt57TxAsFovF1X9Nz7JcwrxhM2eOJh97bMyYXr1CQvz9dTo0vCCgiqwWGNJt123jegLugcsRGCkI2Chsr4+Pp6dajey7kJBp04YOjYggCGQdpqbm55eVIXtREDI/J0ez84qLhT3cruBg9LubGxr44hP4M1OpACEvpD4yMy0WjkNWMEU9/PA99/TuLcZu/vj+xScPZbKCnteHhvo9qku9//64uF693NwUCrk8NTU9vaxMoVAocNzptNuRpY7+k8uhYlGMgDJMWRmy0Vev/vXXrVvR9Xh4hIUFBXl4IFuMplWTFQqG8fLSapXKw4cvXcrPB2tKJqMoQUBHo2mn02ZDZ6AotB2aaqFRCHEVtRpZ5fCJ1KzImF5VZbfTtPsDNI3v8zqPVNPw4b16hYWNGtWnT3g4sg0HDpw5c/Lkfv2GDevVKzTU01OhUCpd420PzxP3/JlHyu8JtC9D9qnJdPFiTk5lZX09GlljxjQ+2+akzSwsGKbQXx+2bNuGVrqff0YDS6dDe2RlZWXV1n70UULCpEkDBkRFhYQARUl7LtGAxDPQpO3bl5KSm/vVVxv7nTghk6mX0nRVFUHY7fffT5JK5bBhyPD39UUqDEpY/nw2F1hY77/PsvX12dk2m9PZuXNoqLc3kCaLTKQ3bhFL3XagrIFn/vXXmzenpgIoRb6YTOb5FX5vWqdN+/LLjRtTUoBpE1wwKAPSaDQaufyhh0aN6tt3oCsiFrQKqbIVK9avP3Jk69ZjxzIylEqGoemoqMBAT88nnpg8eeBAh8NmczhMJmQZwfVAc62mTbekLqSPj7u7bBH6f9kiSN4DqQ5YebB/B72OVMDCApsa3HxwnOfNU6vd3X0+EQxivLuptJnCgqEM5tw33zidFsuBAxjGsm5uLMswdjvHWa0LF86aNXFiZCRaa6S5j/aMLgGlAyoVHvThw2cfzJ6ZkPB50O4Rvr46nVYrFqkgN/jeewlCLh82jCA0Gjc35NwCzFKM4d2tAs8B0G3PPYemNsM4HA7HxIkDB3buDE2ubl5hgY0mUpQ0Ki+INu7ff/p0bu4nn/zww+nTy5a9/PLYsQBHTE/Pzq6oWL58zZrt2/PyzGanE/JucMzaV21vcZzXx27vUZRSqVRqtcjWr6/HXGELs9liIQjo+DJ16ogRXbu25DqlyqgROIuOh65ayv8FW9rzCL/9As8D+Sxm86xZixb9+KNOp9EwzLPPqlQaTa9e8ASvb3+2gUtIEJgRM7Isvg/b++23japKpbLbed7T09NTqfzww3/9a8qUoCBfX60WwqWNrmP7FukVgsMassr3ku7+kYY+faIKi4rKyioqiopKS00muRxN6kuX0MM+coTjamvRFpoOWUUkEQR+D76vkSv7bhJB71LXo6D4GSndLVsgSmS3O50PPYScuIAAHx+NhudvtoV9U5sUnjlagUmySxdkzQ0d2ueX4FUZGXkR5T9GRQUHe3l5ebm7K5WTJ48c2aNHeLi/v5dXZmZJSVVVRkZ5udOpniI7gmG2X51OiDAByp7nkXqFcm6nc+fOAwcyMmJioqL8/QP+4+WlXsoO5zh+N5y96WfTaxYXtutv6RCpgMLSaJRKmWzbNuSmQ8TSzw/5aJGRBEEkuWbKvqZ/2wawBt7VYujbzg6HxXLsGBpiDINOB85CQsIzz4wdK0Xo3PwZ76xAU6Yw2t/fzU2vnzVr7FhAKq9a9cMPu3adOVNUVFuL1niG+fprDDObi8ch5f0Ax7iiH2gYt21ryVstOC4YcJyiMSPHpaU1vj9kUTIMOEdSi+PWCaRiQlZ5e7u5hSb5DtF1kSZnIOIk5S8HRz51akZGyYs1r5rN9rfLy6urxf7V3t46nZubtNPyNUj9ux5K0F4FbFLkkBNEeLivr49Pbi56V3l54E5jGA3u4HWU/Q26hIKAGQWBTMIwwfDrIC6Bjf91mzPeyapUzEKCeCxj3Ljev4zc23d9eLgLu2KEZpN3GlHiWvGMgh4zVr1cW2u1OhxsAq/39fVcrnoXec2tujbXkMZx3IgZ8SQ8CZLXPF9eXvVPi+XkybTphc+lpl5+rPC5Mw/k5JT93c0NWV5RUUSSbFG3bgRBENHfkSRFubkJgmAgEsXucu0Q27UHi8Mwaiy2l+M29nM4eP32IRhmtTqdljdYdl1nI/Z//0fTzAJqflPsUttKAxJqr7AXw4SR2N5rRlQTJQNvR9oHkCBwo2jzuDrsXbVsgKq61XfRIWBhMQyVTFFrI7cNSUn5b499+86dIwi0fHyQyjCae4U96E1f529bq7AgmsOyJMnzVVU8TxCL5Y655tfZeY65jrmrVr311rRpUKnftpxHIvkG9hv9PkQKWp4YlnIMffHF9u3Hjg0cGBkZFhaxOmSVu/vNDFOx4VWjQwOrPfSSufBQTk7p3+LZf/97Yz9I2KtUyP6qr0f7oGdPEGjKq9UBAeB2gSMkRkPAzbqD8S8XAJhagCysJUtsNo4rKiIIux25Tx4e0h6Fd+wKO+SuEml0EkLvUJyEZqdcvmwZvQDNkOsv3a2eBlBEDOgq6KBvft1mczohoA6qSizOaFu3R2RjaqzFQlci7dLRkiNABufy5ezsqipfXy8vpdJlW93klV3bxw22wDTuvC4kxMtr5cqEhOefnzVr8uQBA5xO5MpQlNUqCHl56FtCAnqSK1awrNlsfQPZrRDehsR9+5GaGvS84foBfgnP805fV4fcrQJuuHSL3S4Ymvd1Wj0dIAqzZQvL2u15eche6NcvIsJvBeRrbkWUChyB777bs+fUqRMn0tOLiwEpCxYNNEGA/N3vHwcsMrD7MjJyc8vLNRq5XCYT0PFvoRPgajyud3OTy+32adNGjoyJ+eyzuXOffnrKlMGDIyPr6ux2s1mjqa212y9d4nmOW/YecrbS0zmOoqDLyJ2FfZAkZsSMdXU8D2QyTie6I4IApDgk8u/c1XXI3SdNFziLxWoVoblEIo43X9PSiqA70LaUlqIptHEjz9tsKhWyK/pt7No1KMh5jM25NWFXcNamY6Owvn1PnUpLKy5etmzdugMHrlwpKKir698/Otrff/Dgnj1DQ6OjQ0M9PMDKg78VO9kiuwddHY5bLBaLzYaUnIix5nnWyN1ChSXF4EDiHykvQQAoADBzrlu3c+flyz/9tGfPyZN8pVYrl3/4IU3X1Q0ZwrIMM3q0TEaS/v7oHux25G6K5eJQA39r1RmnxzDMWF9OEHYMYAuwNDRFJ3VIh7RExLASMh3c3dVqsaIAKkfsdpHLAsm1Y7vVWcKtWznO4XA60cpbWlpTY7PFjez1v/Bw4R1MfivxJqB0IPsDn2Vl9fUEceDAmTOnTi1f/sMPR4/m5ubmFhSM2jdke/R3U04O3dH9J1BhUJMIxzl9Oi2tqqpTp4CAO0GqI3UYQXlBOcvf/vbAA716TZgwaFBY2MKF33betcssr5nNcYcPU5TDcfgwcsJ69ULqCWjzfHyASLcR+3arrxzYr0jSZoMWnCL7FXRG6Ujfd8iNiVKpUMjlNhtFUZRWi7mMDN6VpSXmY8lN92+FwoKeYgcPQv0XGrgPPRQbGxmp+pdSiVb8m8Xg/L6AroXpAWA8sFOmTRs6tE8f+Lx8uaiounoVtgE7jM2Z8+67W7bA34aHh4erVCNH9umDXLD6epYNCPD29vODX8GdFG2xxho3+PVmqr3gyCzLxruOfE0QUWobgaMaEuLlpVK9q3zh+UmTfhq4e2Rq6qZN+/efP0+SyPFNTydJhSIhQRBqa6Gt6ciRBCGTdfkWT3QxSRiJJDha2yLsQcmWlgL4tVFgbewARnZIa0Uk1WwcM3I5y4JLKJM5HGSyK4GDXy/G0yLgKDiDP/3Esg5HcTH6LghWq832yiszZowa5bZMtYSmb0/LpqZgPJZFihI+tVq1mmFGk7FzOhcNG9Z7NrKuPD0ZJje3pKSm5siRCxcKC4uLTab6+qKinJyCgj17jh69dMkxFzPKFgVe9r6gOqFSKRQMA1gQMah/I5MfVBUgsKlkeiyZLBtP0+SB5vaXAg5lh+lDBBH7ete/BQcPHNijR2QkcHNdupSdXVnJ88iNratD1s6hQxhms7mefFx0NHkA39cA3cCliYCbFTIJw/DEwzKOs2+rqEBjQaVC9zdjxrhxffpAxUKHfdUhLRfpaIH5tXbttm2pqXK5UskwQ+aSJHVQp3NxYzUZV81aWA36zyAYcPxSBscJhmMfC3r+Le6wzWY2v/jig2fj9kZEBAzRfmsf6dzr0o53nA8RJikbz+m5hIikYIO7MTIyNHnAgJlZk4/HxtZqzaTT+ej0N1/5OmzCtHGH+/Uzv4485s39Dx8+57nyuQ3YkR+9vNznK5cErNR9oFnm+ZG7u3KJr6/HcqUyJNjHR6cLCPDy0moDP/N5RJuiXCI7Qo2B8zbgd2C1SBSMIt7nU59f3j92bKnmpfLxdCtuw4UzYuO5OI4LxnwwlWoWdS8xYMuDgXHxPW15zxa/UFV19OiVK/n5V65kz6x9dWNd4daSLYfssrnU652+IpPpBVFReCKOR0YKgkwWGEgkQQkvqB4xvQDtUZur2GoqBbNc7ufzDgfLxm6KiQkJwVzFLS4snsB3kEzfvBhwoziZKYogiCRAiuE4FofeJx53vdRQUzQZN5znhT34PZgB29vUrm8XAnfqQrM75zrmsfNYliCI1fAjPV/YQxDkF9g+zMjz2DUJsWZxWMAICmHdxYsdjtrawkKrVRACA318NJpPPpk9+777oNFA+6fIkNYuPf74W299993mzR9//PjjkCWE0Dug1c+evXy5sHD79lOnLl9OTc3Nra8Hehnp0YA2BChNoqM7dfLyio4OC/P3B4cOspbgnOr1K1du2fJ1p4SERy4CPv7m70XqtMK5UlIyMwufW7JkzZqdw7Kyamt5PihIoSBJoE9hWYUCx6dNw3G5vHdvimIYLy9AtDU6eC2xkF57zeGoqwNAw5NPjh8fGwsZT5uNZZ3OjuLemxcA6ADB0bFjmZnZ2Q6H1crzZWVVVRaL1epwOBzS/T081Gq1WqNBjjlkbMPD/f09PUNDA1dqtXI5s4impTQ77UdEogQ0AuvqbDa7fdq0+Ph167RaNIPmOSlKqfRdAU/k2pH5BzEsk4njWDY3F8PE5tJTpgwc2KUL/Nr+VZVYskuSJAl0axjm6SmTQagPAANsPDeP44ITfRJVKqR4unaFIlhgCzhy5Ny5/PwTJy5ezMu7cCE7u7QUXKJ9+86dy8nZvfvMmcxMSMpGRgYH+/r279+li7c3nL1v36io4GBqDplEJrM2IYFteEnX6xfTUip+qecPYfuYmPCvfX1XrZqnf+yx06fT0oqK1qzZsQN9y84uL/f2Rob2+vVWq9X63/8qFDbbww/juEJxzz00jZ6LIPA8SaJjSomhRU59tN32Jq/nebMZm0cQQP4B5SyAwAJkXIdTePMCC2daWn5+efl//rN58+XLsFiSyZjRGY8ZiSSySRC6rAwoqmFxgm0yGb2ASBo7NnZD+OrRo/v379oVmtfCr027GRKJuKsS5fbh+6UwGCBERPORotDCh+MyGRTvoL1akSUEdtD0dDS51Gp0oPJys9lqBWvibqwKLC2tqqqrCw/XapHCommKasBng9EpYIIIg4D9VSqFQiYDdm34BBW2f39qas5TP/64e3fK1KKiykqW1WoVCqUSqMh27kxJqasDvBd0PVkZ8EufY8dGHxhQBs/OzU2KGGuOJ/P3ReQzAN50Tu8qS8FwHCrpgAoxOzs/v6rq++937UpJ2bbt4sWiIl9fuZym168XBKv1+HG0fsfGNlpeAJuAozocEEFwcScYkJUtvIrjQE4n8qyLV35LXtZfVsRWaSZTdXVgYGhoUJBXd/Vq+UrdMFWMKhz2AV58lrXZcLygoKqqtLSioqrKbodpz85zOgX7poQjRzIzIWnTo0fnziJNJmTYpQQ4DWVz2O0rm4PRDgoaKH2kv9ILXSVvuHBdZ/Y6Cgt4u/kk5DdfvIjjNhus6WBBwJS7WxQWWDTogXBcYWF+fkkJkOS2/AjiioQmr1KpVMpk9903bFjXrpMmDRnS5VFwM5EtU1wMVhi0C+3UydNTp6uvR0phc380dLbghw9fueLt7eWl0YAVNnx4jx4REWFhwcEeHlAICooMLL7WrniQc5Q2cQAob1LSc8+NH//EE8hF3bXrxIlLl37uuTcuPb1imeIdgvj5Z4ZxOn/+2eFwOmNi0CLVr58gyOWDBiFbqoEyaK4rluCSqqqSErMZwCKibQXrZftyOu5GAfWBxoa//549X3zxwgswemU0Gh3Y6033R0oH3jiy8W220tKSkoqKnTtT1hdFf1t+gj1T7+1N02o1NPvYvfvixcrKe+7p1s3Tc86c6dOHDwe4jxW7k1VVWVnFxZWVJEkQFAU9kYhEV+3EO/h1y9GulyWMw/eJsZKvvmJZq5UgHA6eHz68V6/g4L59u3QJCrqZVkuCAMhyfBS2tzGrdWsEDEuoH/z0059/PnWqe/eoKB+f2Njo6OBgyC3+/hGkNDjw6eJE3QO/Ql4SaE9Gj+7XLyrq3nuHDevSZe3aXbtSU6HbbfELJlP9a/ZtLMvuRP661XrlSl5eScn27ceOpaV98cWWLamp0AILrSsE4Tfd40G1WqlE9hla/6CqUMpl2nyXvqZkONL8aWxs167BwbFzoksCVp7zys0t/7G4GCkylQo5FnV1SOmdOYOU9IYNPG+3Fxcj+40+jGFE0q6EykrnjrVrjcaHHvL39/RUq9tfbOTPIE1paqR5cOknvF/YUyZDtryHB7J9Bw3q0SMka9q0wYO7dXN3RyMpLS0nx2RiGOTG19TU1prNK1bs2HH+fNeugYGeniFP+n6qS+U4YeTtQtOJdbJovO3cefJkYWFOTnFxSQnHIav+fh11UL4YXc310njXUVhgYZXHILW1axfHsazT2ch8FBTk4+Pm1lqF1RgqdoXS4rC9wOQJdoWI126cAG3XOBMdx2Kx2+32f/97w4YTJyZMGDCgc+cuXUJCvL1borBaInDlcLTSUpPJbv/mm19+OXJkyZJXXpky5QH3YcNiyiMiAgO9vHBcpVKrHQ60LiJ30mKx2QhCoUArY0XFgQNnz2ZnHz6cmpqVhZ4JtNKUyXQ6hQIKkNCae+PXDG/N5//c3VWTJ08ePDi6JDa2Z09/f7kcrW/I/qyutlgsFodDpUJToaiIIATh9HuCwblj5cqXe02ZEhUVEKDT2e0iaqZD2p/AW5bLKYqikA3v5zdu3ODBYWFo1Dmd+/dnZFRXh4frdDS9fv3Bg5cuDd3e458hX2jv12gUx26fgy8qrK+++vXX48dtNjTqIiMpiiQHWUmSGdecwrqOS0gQeCJmrKnheS4BtlRVIZsRkM03w3wE7sOvvx4YffGRY8cyZhQ9L+1fAjkOoJ0NDPT2RmsDTYuwfTCAIS8pDVqLvNtS1kfRSYEqN0FwOp1OnrfZamo4DuIvbYvPhrNDzg7cQ8yF4W3oiTKXZbmEQQu7dw9KhgiCzcayPXvW1yNFmpaWm1tVdf58VlZh4YkT6enl5RcvFhaWl2dkfPfdwYNwfGjVgT47dYI4mDSMCsBUnseTrg5nNmf/OOfC3jiOcdHRPj4+PjEx993n7//kk5Mnx8ZmZ+flmUwHDpw7d+XKkSMpKQUFnp5arerdsDB/we2oSGndFk+tQ26lwByBtIxcTpI0PWvWffcNHNi9e3h4YOCSJWvWHDgAfLnf/7B79/nz8c6ZM+NuE2MdzFlgkUWWldmM4xQlCF260LQg8ONczfSaQRE2G3TPnsmyvJ5ejmHcm8olGIYZ/f09lysyBAEjXcG5VhUMS0tSJspHDI/5+xjHkIToeyomVFdbrWVlJlPtq+fO5T5dbCr9W+nf6uZUV9tsDtdER166cwc7jGGwOHK07mN3d+USmQzHMaNOp31ftsj3U6RGtR+o1XK52zKlUi73/Fh7Wr1Us1Q5maaZRVQyReU+VZReXo5h2Es83+lLf3+djvqVJImkq/rZSdmUWsnbxSeg6+EXYwZh/rlpmeElL95zeOiOsGcoCi8mjjgxLI7b63Sye5G6bezZp1YrFstkAzZ3Sw5YGctHR/sbnv50yhSCqP5f3Qbrltzwkq5V/yt+oepf5tfRS62svPRqjrX8H3v2nJtT6OD1jrl2u0ajUMgXB4R6blIo+m/u1i14VUiI3woPD61Wo5EvhiLS63A8xbmwXkJjwwgIv8LwALKdyKTQpAEDnnxy8vHYTfVzzHlIvbNK7lCHqrpbRJpNhqgmvOUBm7t1C1j5RXAC+2D858G/9Dgy/si9570Kn9v/SkpK1rZhO3r16tSprSA4zQkQy+wecWLylScEATcKP2NGtNj31WOY4h3skGDAk7GWc7oDvHB1hNNpeeP8+UbykDVrDIZHH709OljKvgAOVHZ2YWF1NSR9s7IKCqqq0tIKC02mzMz8/NJSqEWC/QHmDxmTkBA/PzHEnpdXUmIyxcc/8cTo0WAt+vi4uzOMQiFbyCxkGCKZmg97ArZIjBBcm1ptmmqV4kpmzDAa162bMWP8+H79AB7RXGlOy0XqIEv7KoK1m/Z/OU9VVR0Yc/bBoqKTJ8+ezcyEXwcP7tMnKAgS24ARa+hFDDnFxA6aur+uAOYLrDC9/hPvrQNPnLjyRMmLy5e/+eakSWB3SztX3wp58cUFC375xWxGM7zlbb5aVEvo5ubmJvIf3B4BtSg2+EaPNSIiJMTdPSwMfUIQHdw6AJ6BYwXAhePHLz5S+NzevWmPlv29qio/32QKDVWrVSqdTqmUyYAqDJxckMGDw1d7DY+ODvnC64jUOQW2LACXgrsH+0NjV57nDYJBbESOYSIErqCgoKC2FpLT4MBiBgJ3sa7e8NOQDpqmC0a3bmFfe37U/W8RD3gnYdgDD/TqBfALyBkBFHbXrhMnamuBGUKFKYyyRa4/vUGVJSVgu1vyxR0iFSksJuzr0FAvr8tDyjRVzP79x4+XlcXEPPCAv78049xW54WRc+VKXp7JlJNTWVldrVB4eSkUI0aQpEwGHA6YATOS5A22qpdqO7GFEY7frvyQNFaF7BdBANsC8FOwAgDbAeCP4AqnTBlWFH2grs6cbL0fYGlLl3733V5XAI9hANZw+PD58wUFGg3DYFhKSsaMkhdTUjKwkobzgr3m4YFUFLCDIntMperTJyLC1zdyTeBU75zQrwLKvMwiup2maTo/v74erRfYb7RkgDRxChx2dVl1Y7fotljBkA0sGBwOnucbjg9KVqPp1CkwsEuXqKirLTIMR0NCaDltoctZJpIFAQ0kdEdSSC0g1DrU1t0oMLt69YxY4++/z/M0ma/YsePo0YsXn332vvu6d4cUWVuBwxubFhMENCoWO04JAsf17InjFGW3EwTPUzgnYJhwPUL3llpYyMVqbMh++1LZTf3wq3+FKAz2m90hjRAB7BOQJnD9Q4f27u3r++STY8f27w+qDZoUpKVlz6x46fz5nKeKX8jNLSmprs7JKS42mZDFxHHQWxg+oViHogQh7QD7OEli/4Nz9e4dHOzu7uGBVJeHh5+fSiWi6pGEM75JmmWkkiLJZEgdwNnFwP/NGt5Qx4c3qK6mXWeaqJJW0hVCNoeRkSRFHzx47lxe3uLFX321bZtGo9GoVKCwbvTaO+ROCoy6oFW+vroPbP+y253Omhqr1WKBxAvg+K4zfm5IINAOBXC//LJr17Fjbm4hIYGB48cLAlruYbbzPEH8fn1rswpLpUITCx2G46pdIt7ktdQQ7VPgGkElnT9fWFhbe//9Q4dGRYGygOwJWCIDBvToHhQ0aFDPpJCB0iOAHQE2GiggaKt54eGcnJKvsmeWlta4V1SgM0ARDHJVcRxZZApFfPzKldu2AWQhKMjtPbz/oHejvwk5EB4eFOThAQ6jNI5G0xQFuHhxYZDaLOLzFhX0reUdazw+/Ftba3ndGb/s7W+77NgLlmlAgKenSlVdbbHY7fCUWt6kvkPam3h4uLnJFvE8x1l+hJoNiBSDwmqrs0AA4Zdf9uw5d87TMyTEz4/nbTaWHTFCrZbJoPFwS7L2v6OwkCPhcKBhW1NTV2e3wyRvbeuH9iEmU3U1RKYgoC5CQOFfTi8YOA5jr15IwEaDqSiFEUysRzYF9R+k+GBFAtjE8uXff3/oUGlpXZ3VOnPm2LF9+xYWVlRUVxcUlIfaAk6cSEsrLoYexTZbTY3djrleo1yu1ZIkVBEEBrq7y2RDt/fqFb6636boaP//AFIN4BGiqkXXr1BQFE3fisJjWAmlvZcNxlXBu3aVvFieW1MD5anSc168eOVKff2QIb17K5W3IurRIbdaaJqeT1G+LgHTBJqhwXiTei03JswCgiCSsmYWF9fOgfHv7e3pqVT26YNGsacnQBpaqk+aVVi+vsgVcPH/8RDTKSwsL6+vDw728VGp7pYhCfYR5lINgPBq7RFgajaN0TgcSOEB+BUpFJJEqksQIM51771Dh3bt+luDhnxsj8PB6vkH4W+lhRQmE/LcwXYDBXfo8IULxS+senTjxpQSmw0Z6q4eIjiUUgM/BCjfyMigIHf3my88BksKevzAsrR+/f79ly5Bg3iSpObjiTU18sXsW9OnY5hSee4cehZlZQTBMN98s2fP0aOxsT16TJ58dy1iHQJCUUQyQQQGuq+SydD4EwQIjNz8kSFp5ogX9Dy/9JXvPPfu9fLSaGQy6Bc1cSJJMgw0lmlMXf3h1TbdxI8Q9ghC4EosjiBIGsOIJF9fmmYM585lZhbMQrZGtx/af5AVbITcp4qKKl5yd3d3J2MCA30+UT3VgLe66bYTBIEZBAEzYDiGcUl8kiCcnJKRkfPUVDJu74QJ9recPzg/cymrhvPgGBQkCUbMqEpUKGTGiNXhXwcGNnTNS8SNGAbdCfl4F8NRhOvPXNs5jp8nGJAdx86zWh1v8zyfwCZwnPM9QeAYksTxpnX8zQuO46PwUYKAjRRG5swsLq6oSD2T8Vhx8cWLOU9VvHRuRmZmURHLCltJ0m+F6l1q/pC3qYPU/CGLcEr9sfIdzMjzXZ/FEzBs/nwyufZV65vlNvvbK/z+2+NIyD/KHzo/dIcwgh/B88LeO8+P1iEtEYEXdguC50c6nVpNxKERm5NTXFyRdPP9kHAjSeKJu+KPL73yeMVLla+ZX6comYwwzM4jCLf3vD7CE115duQItpiX7Xp8WK4mO1Az/f77TmddHbSiQgrAbl+zxmB47LH2r7AAyQWWwpkzGRkFBVAGDG6UdE9pbAi2SAuFRPul0Y6RxnekrtPkyS+9tHLl5s0ff/z889JGGL8vkLkDzBdYXrC90TYUBSiJwVFt7dOQXm36o7m55f+YT3/11a7hEIcCwIfJhNa67t1xnCQnTCAIubxrV4KgKI7DjIIBqNRExBkayqmp6PPTT1nWYoGWZePHDxjQvfvzz0+d2rPnrabM7pC2EjKJIPDEL0I3bToxeceOY8cuX4bt33+/YMHjj7d2psM8ghkEtRz//Od7723YgCw2HJ8zh6Lk8uhoZE0BnVFrr/Z6bA0N2TccY9l+/TBMocjIACoWs5llIc4PjmH7D7KCNx4Q4OPj5gYrhhjcAxwK8DAg51cmkwIyG3N50nUGtjje5jh2nvUth8MxV1pe4+vr5+frC98xV0ETOHqml+vrrVbLG8i9KyoqK6utBeexoMBkqqqyWBwOp7OkxOGwWJCbheMREWFh7h/26dO5c8BKaZAeKSwPD2kAvjmRAk3B0YPkw759KSm5uavjf/311DbZIoqSU8idxVzRPKfz73+naY2mVy90n1I+LGlesYFwxtXYtW/fxkawGRkKBYZB15+pU4ftCA/39dV9qFTebbHOv6LgSbiRSMJWYbHiFrWaYRSKG4thQYwbaIri4z//fOdOyxu8nkj6vzNEkuIdpKrQWGskL2qtXEdhieUa6JS9e5OkQvH11xxnNqtUaIUGihKoS7o9dlZDg/JELLGRqfz6yO+rbsz1uEFB9O/frVtIiHh36O/r6mw2hqmpqa2tqqqdXfuqxWJ9yxnPsgA9ramx24EahuehaUVmJuQJa2stFvS3jq/Kx9nt4gP39pbJKApZKTLZm2++//4PP7CsRuPnJ5fzvNWKLUX7QGYtKiow0NMzIqJTJ612xIjY2NBQqG2UZgxdIfYLrgMPheOLFZTAAitad9d73dIKAbD7vvoKKRHgRUK/y+UMwyykz7p7k8kOLi4Ow1SqESNkMo0GYHuAhYGKzGtty9/eSMNQQ9tnzCBJufzdd1kWPVFPT6Xyf732drv4yD/KH6YHbm2rpHiH3DrBcSxRMOTmlnxWPQS2BAT4+6vVN+YSAnbSYPj00507S0oqKmpqgoNpXI6P8WaYm1NVIM0G3WEVVSpx3G6HHi1nzshkPL9r1/79Fy8CZhpgAXwCkXi9Uo/mejITiWQSnognEclil5erLqhJY06rkcWc8QKaqIngNIG7BNRfJpPZLLpRoG7AqgJFc/lyYWFZGfqsrFy1asOGQ4dMJmTdwP6/FfS8i2HYnOs9A5pG9+F0Nnb1wDDff7u5aTS9PwwOlst9fTUahQIsJoUCPa0nnpgwYfLk8HBvb4WCYdRqnc7Hx/0DuVylkhuaD/lLqWyluTZRNUM7DNgXvW5p4wdgVccS0d9C2wsA5kFGRqNBClCpVCq1Wp4nSadz5EiSJpPvu4+gVIvR4OE4m40gOI4k0e8uFxBrju8RBM4Ng8/XFym2Z59F723pUrSwbd58+r709DHa2OyIipiY8HAfH7Fkur3b439NcTj4BJ7PySmmTSZgLgVKgpYfAZZJGLegqrKySkvLygRBJqPpEbsJikzmBgoCyYh0UtJgS+ukWU53KVXupUtopVy+nGXNZuhIOHVqnz6dOkEr0AbeziYijQpJozMVFdXVdjvSvWYzOE1wq1JFA5yKVVVms91e9a/yf9TV5T1T+JyII79WWFYu12qvjuyAMgJ+UYjUkCTHIcsHTWE0gdVqHx+tlqaRYmEYHx8PD6XS21unc3MDPBTYPu7uaMJDhhGiSJAGVqnk76D9kHrduPHQoUuX4LzS/GADstyAGcR2sG0lMETg7FeulLxQ9a8lS77tsv8eQITpdBoNwwgCw4jWVq9eBEFR/fuTJMMgVw6qFcRfbybPCFYffIeo1qpVDofdXlJiNldXL1s2c+bkycBR0dw46ZA7K3V1ZrNj7sMPJyR82xkqcN9+e/r0iROHDOnd28fn970oIImCDgZQTwLIRIuFYWgaKCH/8Q9qvlJJEIJBbIZyM/IHSHeHA50EgmSdOxMESRYWotX9yy93775yBews9buKxbJFgvHa6h+Y9kePnj9fUAD0KS25ICDVR586XWwsUh9YGnYUw7A3sGfFY8KeTTsPg3JBE5kkvbx0Opls1qwFC7777uuv9frnn9doZDJw4xrLfZBNQ9PMAorieeGpqy0AKe4JtjSc2SBQmNFpZFnOCEz3AEeAMmOxcBrDWpqobSKuPKZgxHHMKD0COL9wVTBEwD3fPuSEd+YaroSv4HnASdE0uq8+fZAFNG4cTSuVvr5IrSAFhWysxsXk+uXdrRFoUwJh+H79cJymT5ygKKcTLQhaLQBop08fM6Z79yefnDSpf394g9KO3LhREDBjaxkyOqStpPKlmlfMZq1W4aNUAq7Q39/XF/kUjURSV80al0VPzkfjESofoD4XzS+VClQV4Ncffpii0JzDcZ7nefx3bPaWS7MKq+lQnjgRx9XqpUsxrL4+KEil4nkIqn3wwb/wyYsgPSmNrcCghCo/+Ly5S/1jgUdMEEQinsiynB4zKhQA/pTJkOoVYzJXl/vY7c55LnfvGko6CDdKV4SGv3OpZniFoD5qa5EqBQ4vwJRcFRhvJYQCT8IMmJHAeaPIsQXYKFD9mzYhNXXmTFFRbS0QyxJbaBpPdHdnGOWiCROQYouMRLZVo5LCcXT3BCGmHCTnuukBJA3DA2XytLN4onyxXsDm1c0BiCCEEVJSrlwpLX3ttUcfjYsDIsCGjC2OG1tV29ghbSpnzl55svA5prtyP4YNGBAYGBwMMGlpaELa9LeuzvoGyy5P+q7r7t1SQvDSUhy32ydNQp7N/fejuQFLI9hWbXW1zbqEV+3k4iDFk/BEXn/5Mq8XDGvXcpz1zepX2HlcwgMPDGdj/jE9fQzVu5rjrtLKd6QnGu5ifKp4qWa91br2m23bTp16w/JYRlyccy5STG3WQc9lB9E0mUQQJ6akTS8o6L8pel1QkCOe0wuGZjuRuP4KVBJsIBKJZBGDUl1dX2+3n38oM6ig4PiJy4HFL5SXl5dbLNnZJSVlf6+bgyfyvPZ9ZMUEBpIkszA0FFlgvXqSo6kxkWvxUdRB1/AyNMQIjK7mEXpkv7S8/+DNCwxx82voW0oql2B98+RJnhcMubkOB5eA3BQyrp0AAA/ESURBVIX612J+DAnx/09EROiX3t6jR/ddHx4etTb4C09POMJVfR5dyLUO+6ttBRJZznk8T9Nz+n2g++ml8piaVx3bly59qWLisZBVPp9olmGJeBKOW153vI3j6TNyni4oOHs2Y0Zh4YH95z4qWFtd49jO7gwLQx5GxBpejxmHDSVJhcLTE2pjMQxPRG+urbPELVJYV/1Bw4qKLuvll+322lo80f42Znwya8LRPuuhV520ofztL9SgkpGFlfFY7jNV/4KQPNh3dxY7JkVCwRZpJ8SjR1NT8/P378/Pz84OWKlQqNXWNyF+KAgkGRuLVjhoTI8cc5FJFY5zY3iWWy0wTgDHDFdbVoYsvK1bOc7h2LULxy0WLy+nU62urLS9ZbFERvr/R6cbN65fv6ionj2jogIDwQqDo3V0P2wrgXEISZvZsz/6aNOmrKziF6pf+eCD5wrj9sbEdO7cqdOFC1lZZWWQujl06OzZ9HS0v0LBMEolhvF6Xk/Nf9suX6x4BzotwciG8JF4llv1plrE1iAVKXQwIYFh3NyWyvkFdfiXX24wHz4MgXMAPcAkulP1ZaCqAC4gXnlblg1DDlRKcta0bBjUkwuBasjIyMzMf/bAgUuXiov37UtJyc42my0W9BSRK6VU0rRM5ueHhoRmGUURxCMzMUyp7N2bopRKyNVKsVEQI5PCC9qbgJpC9waURBgG+cRHH0V3N3EiyzLM1q1omB8+rF5K0yaTiXU4vvxy69bTpzlu8+bjx4F8UarCwOmGKJjDAbY8EGE3ThAxAfB74I+/jkhjT/DcAOwCwRyAHfToERzs5ZWWVnzSbF6+fN26tWvz8sxmp1OphMSOQqFQQDFN5844TpKPcfQihvEJQIMd2sFhkq5JtzoX3GoLq6n81J3j7PajE9DKabPZbDzfo0dYmJfXM8/ce+/gweAP384OtIRL8vJKS+vqIK8HBcy/j2BqrYhDAb0ghmm0m0BBI9eOYdLSLl8uKvr55127jh49ciQ/v77e318ut9nQEFAqzWYxpsbzkNDo0gXDaDoujkxWvENRRBKXwDDomn+fg/HuEhjQLEuSPC+X8zxJXnyYneeM/6mHYLC8AS17wa7UaDiOJC0Wp9Nuh27bUIk2ZcrQoTExw4b16RMRIVVh0rNIuf//mmpLyr8GCD4gjZk/f/XqnTuBxRf4QaDSAj1n8SkRhFyO44wLhCBN3QQEuMDWCRgmGDj9nXHSb9AlBAFry2ZDj+TzzznOZrtwAa1wSiVyCS0WpKZmzZo8ecAAYE1q6Bh8Q333WitScGlbKcqmbh2sV9JGEleu5OTU1Fy6lJeXnw9ATSKJpgUXiyKRBKCQmBj0FLt0QYMCmphCgByo/cRy0Eaavz9fX2UpEsfl+BpcKZDEykpBYNlTp3ie50+eFASbLS+vEX4B44qdx+vZedWvmF/nEkCFxcSEhaEniGTcuEGDunYFyxroFf9qaHuIT8nfoRaIFQ4//bRnz7lzX365d29aWnCwVgvsueJTsdkwo2CwWvFEwQB1CyNGUJRcHhSE3hGyi2kalkyk+HieSuYS/oi16hbe3Y1ZWFcNOGi8aiCSMGzjRqSrv/nG4RCE8HDojYEcH+AbePzx8eOHDRs1qm9f5Pwg9SVW0sFR29ICankJC4SlXV1kjE1x81L+LOCrgCLwbdtOnsx8HHp+iEdD9yOTkaRCYbdznNXqcKC7DPocPYd7T6FBEBMDmT306sHFQ24N2ALILnTl2fSuodAMReyfUCAB4bpf6XIIz6e0lOedTuhAfvEico3Tp/M8l0AmYxieCJaCtFF7YKCPj0azYMGsWWPGiMBm9Gbv4rC9wVUYn9yYLmpqOUqX0trZ9fUOxw8xu3enpPz66+HDFy4gl1wmQ09DHNtg3QPjyKRJmFG2aNgwMplM9vBA4xLUGXBUwRyHTzEPfCcXgDZwCUEAQAgRnbQ0dGM//shxZrPUyCdJm41lo6ODgtzeu//+kSP7rI+N7doVuUnwkLBrwqstUTp/cHuSIzS1j6SoeliLpHR9YDEB1calS+h7cbHDQZLen9ALeL1yiWyRZlltLUWhSYO8eQ8PnpfJOnVC55FaT35+yL7CcTyRS2ifAfL2KdJJAoh82H50ArK//tsDKSroNgBcr/AroLQffHD06KFDkS0hVWZ3j0j9A4ahkl0ub6K4TVo0AyGI7Oz8/KoqIN777LNt244epSieZxipkhKPhuz+l15iGJkMqSc0ZpE9D6V4AE+5zTfbKmkzhQUCg4ymkfkIk/PsWWTkb97MshYLKC+adsZjRkFg5yHLzOm02fr2jY4OCenVq3PnoKDo6OBgb29oAKFUKhRyuWwhQeCJgtHVL/F3BRQQcjg5F/0Krxe7s11b0AMNsgHweW5a5uMlL55/KOepipekbO7gwILFBEUtgOVycV0bIyLQug2KCdmSMpm7O447nV5eEEMDExqpaXDxnE60jSRBqXfIHwssgfDcINoFeai3bFZr3ZySF00myxuffjp79tSpTbkxG9p/uORuUVjSgvwTJ9LTi4sBCA3pIyljGlSDnD59+XJOTlFRZaXNBgVYyHrneY0GeoYjxYYUukaTmpqfbzJB1Qc4dxCZmjGDYZRKiuL1mJFliSS0rLb3aF8bK6yrDm3EcS4Bx3m9WDNosSA/OWUql+B0pmcgz7m+Hmn3/Gc5jp1X+ypSMRSFJ+KJ7DyHg50nl8sWkaR2qnKS7IguVX6UHkuSzEKaFgzXmqXQIIFlnfEOh2WAc4dje836uo3WrU4nr+cS6uZwHJ4oW0QmEy4sGVqhCQIzqpcSSQThOQ3fRx7Q3EuOJvarl+KJOK5eil6n7gMM4/W6D/BEMtntPfRSdTqSJJLcP8D34Yk0je9zIaqw39SogdcjxXpnfPs/n7jgpILtbcHAJWzbxvO8/vRpLsFuF0aSB2jqyZBJyj4b+vfv1i0oiKYpSmzRdvcKKCx6Po4TSUN2PP30h+4Khfcn7u6y8fg+DON2ccN5XqlkGCJJs0ylki3y9tYsUyjc3nN7T632WI62VFRYLNY3M1ZmZVVWuj+gfV+5pP/mLut8fQcP7vZDyBfnz+fmlpXtHnH6dO7TRc/XzK6v9/VFS/wzq+lD8kX+6fgoinYxU7Vr9X4LFVbDCSS4rQZsjivmRS3AE69+NMXFHGe1VlfjOE2Xl6MVorSU5zmupoZIYtmiIrQK1NaiLcC40/Rcbm7opXt/giwZr495nqZ9fQlCNIl9fJB/7uaGLCRpkBtiJdLjSL33pvcCMZcOxXQrBJ4wOIB1dWiCfvABx5WXm0wsyzDAv6rXP5M3Ynf37pFr/Vb8mZBZ0vBFQUF5uRgbVSxmGILw+EirFRnWmmZFpXJ47MVHiooS+BV+W7dCZ5rS0urqmpoFC55/fvx4qOvU65HjePr0lStlZTE/KhTMwn9W0jSzsP2HLG65wvp9AaUAyXvYAkFo+A61b5grg4Qltti7du0vGNEnOGWgLgE7Bru0f1/9rykUBe4csnA//lgQ6ury861Wms7NtVorK59+evjw3r2ffnrKlAED/nwEgVLqO4i0ihhGtMTjeGMapjk1LZaLkUmY8fjxC48UPQ8t6VUqhYJls7Kqq0ly7do335wyJTDQx0elmj17wYLvvy/9Gzq6nqfmKxStZVi//UI+/LCXl4/PnTp9Ywda8RMquiFf2LB9BCC+G/eEgSr9hO2wD78bmbXccGI/QTQkYilonAEhXDHD0iHtRFwWKzeC2I9sYjRZf/7Zbnc4Tp0CxgurleMeeWTYsK5dgR3E4eATuAQcx+L+fCTM4tgUrX/wSLBR2F4s7o/HrNhaRRiJ74uI8Pd3dw8O9vPT6davP3gwIyMwUKtVqU6cSE8vLJwyZfDgqKjw8M6dfXw2ztlPXHlCqVQcw/bGxLiiwA056/YIS77DCkv6OKQUxNJvTbc3fxTXv3HI5xd5pED9tewoHXInRIjD4pCaEvZgWHo6sptWr8Ywq5Wi7HaW7dbNz0+pnD17xoxRoxyOBh6wP6Gqut7IbIAUxN3IcZBtxvNIbXl4eHkhd/L48QsXCgtraiyW+nqNRi6Xy0eN6tkzIuLQoXOeV4KvXLFutf3auzeO07RMhnwbmDvtbcZ0uEUd0i4ELIo1a1iWZd3dAUCLnMPXXnvmmfHjpb2yO6TlAvhBgG37+/v5qVRQcPPllxs2HD4Mv0ZG+vl5eVVXI4e8oACpJwA63Olrv750DIMOaReSmYmcdaAogZ7bzz57331Dh0I7j8Y2m+11IrVPgScGcJ+///2RR/r3LyhALjbHkSRF7dp1/Pjly506BX6m0zGMw+FwnDvHssiOFamT2pd1hXUorA6580IlY0Y8MStLEKC5LIYBOm/06IEDIyPv7LX9OQTA2NHRPj4+PuHhWi2ysQiCok6cuHgxL0+nU6nkctgzL0/MkROENP3VfqTVbA0d0iFtK/weLI4fEbICH07NJ5OdDr5WwOR61fzF8tWrtw9RvavVurl5esrlcrlSKZPJF7s/4HaKGae9T35MPoFawCzEcdUSuVxEuqOpiOPyd2QyZiFsocaQ+wmCHkMeEN1K3sDpeT2RSNNXp/AVSxiGILA92B4Mw1x9FQWjBGfXRMgkItmVvcOE1rOsGdCROT2f8Ic2YxyGYXvwOAwTro7cudqyQJ/K347527XiSZCkYlmOgzt11QwYJx4bPDgmZn2fffvOn09Ly8srL095PzesTEH6MAspqsDpYh/DCEJQu5hEEttbDOsOwxo6pENcBIMCw2BGgigqQv//+edOZ21tcbEUeiJptjbfGY8ncgmCgZ0HWzju2voBoLWB76WlTqfDAd+hhgHEYrFaWfZ23OGtlN8aqbhaujW2SgF2dvgOd2qzEYRC4eenUnGcUskwYknzg2fJZLlcvZRIwnGViudpOiqKJIFbRQy8tx/pUFgd0o4EynEAfwfKq7hYEFi2tBQppcpK5KJUv0IkOZ2mlzGj6LDU1jYG5aHPI5Sdt/bsNN1Q1A9sp8aWxsuuD2P+I7nZvspNz+50tk69VFWhO1zpzzBKpe7DxrhVe6Yz6nAJO6TdCURPPDzQRAwIQGs+y5KkIECDV6wSWyCTYXqMFpuk8DxU4IHI5ZCSJwiTCblEfAJycqpnt7ToxOnEKMHgdOK0CNQ0m4GCsG2lpUekFxCEYGAWEsT12CaUyhu3gbRagiBJNy+kml2NQLD2rKpAOhRWh7QjAcgifIcOiQ4HUj7I5uJ5lr2WIwy4HJBVIO3aKB6tgSxlJZaE4/5NEkwwOaVUzrCdSMSSCBJPwnCCBtVJEDQtZTRtO+UFtiRQGjY9cgOb7VaXFdUPwyi6aR0IemJXh8YBIC1tIiNt2SfdE44m6F2un7FdeX7Nyv8HAAD//9w7v0HD4Wd9AAAAAElFTkSuQmCC;" parent="1" vertex="1">
          <mxGeometry x="556" y="395" width="50" height="50" as="geometry" />
        </mxCell>
        <mxCell id="nIec03bCgh2vJCHFv9-q-27" style="edgeStyle=orthogonalEdgeStyle;rounded=0;orthogonalLoop=1;jettySize=auto;html=1;exitX=0.5;exitY=1;exitDx=0;exitDy=0;entryX=0.25;entryY=0;entryDx=0;entryDy=0;" parent="1" source="nIec03bCgh2vJCHFv9-q-7" target="nIec03bCgh2vJCHFv9-q-1" edge="1">
          <mxGeometry relative="1" as="geometry">
            <Array as="points">
              <mxPoint x="450" y="370" />
              <mxPoint x="572" y="370" />
            </Array>
          </mxGeometry>
        </mxCell>
        <mxCell id="nIec03bCgh2vJCHFv9-q-7" value="Database&lt;br&gt;dei dati&lt;br&gt;iSpesa" style="rounded=0;whiteSpace=wrap;html=1;align=right;" parent="1" vertex="1">
          <mxGeometry x="389.5" y="260" width="120" height="60" as="geometry" />
        </mxCell>
        <mxCell id="nIec03bCgh2vJCHFv9-q-8" value="" style="shape=image;html=1;verticalLabelPosition=bottom;verticalAlign=top;imageAspect=1;aspect=fixed;image=data:image/png,iVBORw0KGgoAAAANSUhEUgAAAVQAAACvCAMAAACVbtbpAAAAGXRFWHRTb2Z0d2FyZQBBZG9iZSBJbWFnZVJlYWR5ccllPAAAA2hpVFh0WE1MOmNvbS5hZG9iZS54bXAAAAAAADw/eHBhY2tldCBiZWdpbj0i77u/IiBpZD0iVzVNME1wQ2VoaUh6cmVTek5UY3prYzlkIj8+IDx4OnhtcG1ldGEgeG1sbnM6eD0iYWRvYmU6bnM6bWV0YS8iIHg6eG1wdGs9IkFkb2JlIFhNUCBDb3JlIDUuMy1jMDExIDY2LjE0NTY2MSwgMjAxMi8wMi8wNi0xNDo1NjoyNyAgICAgICAgIj4gPHJkZjpSREYgeG1sbnM6cmRmPSJodHRwOi8vd3d3LnczLm9yZy8xOTk5LzAyLzIyLXJkZi1zeW50YXgtbnMjIj4gPHJkZjpEZXNjcmlwdGlvbiByZGY6YWJvdXQ9IiIgeG1sbnM6eG1wTU09Imh0dHA6Ly9ucy5hZG9iZS5jb20veGFwLzEuMC9tbS8iIHhtbG5zOnN0UmVmPSJodHRwOi8vbnMuYWRvYmUuY29tL3hhcC8xLjAvc1R5cGUvUmVzb3VyY2VSZWYjIiB4bWxuczp4bXA9Imh0dHA6Ly9ucy5hZG9iZS5jb20veGFwLzEuMC8iIHhtcE1NOk9yaWdpbmFsRG9jdW1lbnRJRD0ieG1wLmRpZDpEM0U0ODlGRkY1MjA2ODExODIyQUNFOEFCMjIyRjYzRiIgeG1wTU06RG9jdW1lbnRJRD0ieG1wLmRpZDpENzUwOERDMjJGRjcxMUUzOTYxMDgzOEY5NEY0MkUzMyIgeG1wTU06SW5zdGFuY2VJRD0ieG1wLmlpZDpENzUwOERDMTJGRjcxMUUzOTYxMDgzOEY5NEY0MkUzMyIgeG1wOkNyZWF0b3JUb29sPSJBZG9iZSBQaG90b3Nob3AgQ1M2IChNYWNpbnRvc2gpIj4gPHhtcE1NOkRlcml2ZWRGcm9tIHN0UmVmOmluc3RhbmNlSUQ9InhtcC5paWQ6RDRFNDg5RkZGNTIwNjgxMTgyMkFDRThBQjIyMkY2M0YiIHN0UmVmOmRvY3VtZW50SUQ9InhtcC5kaWQ6RDNFNDg5RkZGNTIwNjgxMTgyMkFDRThBQjIyMkY2M0YiLz4gPC9yZGY6RGVzY3JpcHRpb24+IDwvcmRmOlJERj4gPC94OnhtcG1ldGE+IDw/eHBhY2tldCBlbmQ9InIiPz4Dh2wQAAAAZlBMVEUAAAD///8AK2QAK2QAK2QAK2QAK2QAK2QAK2QAK2QAK2QAK2QAK2QAK2QAK2QAK2QAK2QAK2QQOG4gRncwU4FAYItQbZRge55wiKiAlbKPorufsMWvvc+/ytjP1+Lf5ezv8vX///+X3zc0AAAAEXRSTlMAABAgMEBQYHCAj5+vv8/f7/4ucL8AAA4eSURBVHja7Z3bmqI6EEazgQgBOfwgotIoef+X3BcBJRDONtNK6qpn9ENZViV1SkH+0/J2IRqBhvq1UMn3iEXpyDs01HlisghAZGuobyPqHFGJqaG+w+bZMcRLHA11FUzm+xHawjTUhcbuBS2USayhrtqQwrZyxuecXzXU5Ui9imOaXa8/RVEURfHg5flenjTUZWIIpOfbg0uSpSkvr7HeqBaIEwFIbiVvSZadztmD80dxBqiGOkdNjwCSnHckP53P8SnnnPMzYGioM1yoAMDlpaX3ovr7Ht/SS5ZwzjlPcNQR1QymERAXFdBHlgBIOeecl0me3JNzzjnnd0CHqfOYnmo1zcU+L6Bm1/Qnu8Xib4Q6oTKLaVYbflE5T2fOOS9ORfpI8gvnnD/GFFVD7WPKkwpqzjnnSZEWt2v2wznnKXyd+pu874dNpveKacY553l2T3l6P5Wc8ysiQ0OdKkFjPeW8PANAfOWcc366X3Iec3DOc0QW0VAnigfEksP/KIrKD3ic+OlxT3k6jamGWssBwJ2rpXzwCy8ynvJsClMNtU6hRMCND0rJ7yeEE5hqqJX4tUM6ID8xAoNoqFOFAfFjRFHPgDvtahoqIYSYtT/aL0UyVkPVUOca/wUILKKhzsigAhg0/vIEHA2ioc4IpSLgOsT0ngDejAtqqIQcgWSQaTyPqYZKCAXw806mGioh4fAuVZ7mMtVQCRvZpc6Y6PJrqFJ8ehnyT4HIJBrqXBc1LocV1SEa6uzk1FAs9cBonl9DVWT7T0PuVD5akNJQ2+ICKPig9UdEQ51X6kOzLKWS2e6UhhqM7FK8WGL9+4bKRjN+15GuKQ1VZfwjGb8UAdFQ5xr/SLp/0ZK6Z6guRmt990VL6o6hHuo+qQG5AZaGOi/mT8oRqBlANNTpoVQw0DzRaFLzNdRZ2f6x+inn5bJ9aq9QPQwn/J6uv6OhzmGajTLl15FTKBrqfKY8XbZP7RLqVKY8XhRP7RGqEWCkzN9w/T0NdZLPHwHxzxSmPF+4T+0NqnEEkD4mMeXZsnhqZ1ANFgHxjU+UZEnWf2dQDRYBOD+mMi0xclpSQxVI04JPlp+lS+peoFIPM5Fyflm6pO4CajW6Yx5Szk9Ll9Tvh2oxMV0mu89Dujib8u1QTdsT42UUcyamLKm2htoDFHFW8AWSjYxJ2xtUyo7Ra+5RyRdJMnaqfz9QTbsxoSu9FnypPJYvqV8F1XKeCorkvAJoVfOz9w7VsL2owbPka+W8fEn9Eqh2PYIzvfys51k5VIuX1G+AarpCR5N3Aa3Sft5+oVKhpPHlzt8pZ+CwV6jUFxN5fvh7pcSidr9vgGr6Qkkf/N2SY2F56tOhGu7SCHSS9bt7hGpHPZMO32T9h/1BNf3XgKP3yw0LK/4fDdWJ5OGRb5ZkcSXlc6HOqokukAKLKykfC5VGQJzz35MzVsSonwnVAXAuf5HpA6scqg+EanhzSveLJMMqh+rzoBoBkNx/lekDK63/06AaAZCW/NcVdZX1fxhUI5jYBLlWUd39QN2CKU+BFUn/z4PqTZhy+A4fdWFX+kdCPUijeJfJz8gmVyb7gmpEiNfu+1cUow1Uqzf/T4LqTjj5NG7bip+lUSYsAKSrEtSfBdUaP0o6ZRNSRaXPWOIRA3mxI/MPRoZITDsZAVXy9NwYlpbz+36gOsMD+aa69YkqeZq+Xs8557uBakXrjZ/HSpcsqUlXTHk68mC0b4FqBOPnyKdU8xSxQ1GvCTVTfllT8/8gqB5QrFbUs/JU2llALU/PI8A/+4j9nYln9Eared2f5gEAJS8aS0O51qf6CKj2G7wpLh7PWapyUrhlaA6pSVcG/58Alb0hPBXVvO5cv8fruajXZjH1+NVQDSd8D9MrVIMTshfUUloovrVGZVHHDYA+pvf8mqav5++maXa9FcXQZOnuktpQ1LO8eXlfBNWkNmOe33ymdnLtMi3zLIZa4vSsgPs4AUCsTJ5WH1PKbpb1HVAPzG8TSs83RQbk/iLqN6T1bPMkTc9XIVkavx6D1kmeeocQkEtf6fxB1H8RqlW1l6dper1er3lRFD3dEkUKAKHHqKVQdMrY0Q97tLhQJE99UzzdTzrAVmAN1T8C1TwCcXab4OA/UgChY42vx8zvPElekTz16ii47sZ+PDewyDY+Gaod4TQpXVJeAHh0xl7H3NeycOsaf70fGb5Csd1PhupNDZjyGPAWODv0wNCZP1vKbWiHtl779JPN35kyeKuy/GDhnR66cX8KhJIqWu6La+CYn737GwHSfLyH7xojWtyL1x3nnynTppQy5tB16dS/Yf6vBS3uLUEXJyBYrD1WR1Hz1S0Tf373t48BQj/qreuXF6zKHPvtuZ452sb/fVDrxEnPOOM8xrSHa/ZtVO0ZlPn64v5HQLX8viA/T1a4N1XRUDaBG7A2u/8RUFnPsLgyTwCEq7SKyQNoywy/afx/Bqrhq5v4qyifrQJgyc/wu58ATHr88YdD9VQlucftJBIe65pwSCAlp28it2KTr4fa6XJ4/FxEq9hqpMRFowerEL9TdCDfD9UHcHpm6l6555CtXvkOjaC/qC7sW2QHUJX5jMB9w72b0TOpn1dIQ5uQPUAlhLrNhEbku7b5lhusH+TzUye2fx3pHyunUHpgjB0ofZ+34wL4Ka7P9cSjhOwL6vvlIK0nR9vY5FO/G6rxKltF3kZEvx5qNQQoOjrWlh/73VBNxpiqPqihfp5oqBrqnDQKpfuAao1vwNab9mhvSTuEQSUZ86qfYv5LqP5oYth8Uz7eFjH+ggpBq059ZLQ/CdQMqem/ghqOdih6q4aXyBma+SN7qLpb6HgYhQogPPwbqKM1DHPtwZBfgapOGCjgG/8AqjnaTOth2VP1lBWU+dM6e6GKPrYxqPUivilUOlZuM1cPhXhuOcGSkgl9ajellFKHea+UZCevjWfVnFKnit3c7aE6YweUPawbXdak6jA2O3lIFZ9P3box0+6DSkg9zFHc3aZQ2Uhl2HzDsfBVQtU/qh2qqKLV33F83t2mUP0RaB5+tcdhMVRiiG8mLydtqMZzFd8UqsjteyOJOufvQa393mAIqlDVzaFieOyD2LHf5FO9GWpFlQ1BZfXNbQnVrEsawxllpU9l2MewCl2qXdiktE7qWdWfdgAgsNsvS5epHv4ReIdGZDoBKnEBIDLGoFobQ316geaQoqp8KtPreuLsxd8Xf1ZviszWy42lsXmAJWIdjkNQxeLFBqC6/8L8HQBB1KeqRgQgVN4V6zjZlgJqDZ6RHqhO1I6TrDlQKYDmI6o6UIP69S2hMgCu26eqDACo4lVVT0BEO1BtWdE7UA1PEQLZM6AK5+XQC5X+E5fKB8DMnlXVECrc9amMoO7CpwYhtH74xKEFNYwAeNS0qRpq+zLVSmDPgHqQB9a1oIoPoFtDDQBQYaWmWlFNErR9qgpG46iImJoeHWWobee8DVW8p3EOwxCLCpsOlUTSii9DtQKgPu2yJVSxOapVtVJUoc3dgqjsu9ZHyVpQHdIP1VV4a9azJ2YiVDmKblzQqOwn2jyhYlZfSamqrLIdt6VgjrLvsbZlCapP+qHSwctMheqgeRAYAHzpcHIdcW0IlVabo0pVjahiwGSfSviu3WSmGXWhHgaghupQzQhnQaXSit/NDhrbJ6md+jYVqloravu2WN8wU9qBGpJ+qPZrvWtVxGZBNaVfuJtNtbdPUrNaQbuq+lRUcZempGGR0bu+NaG6A1CDZ0ygjJOmQpX3JoWHVuVcN4T62oM6qspediVZGO3PBZhtqId+qGb/8F5jHdTQ9+Vz8J6xLdTgaTttVX0pqnBbHAm20R81NqHSfqhDyfHjKqj1P0zKwlfssSHUxp23VLWhqLJP5Q+UmVvOP/pfJt5Aucqeu6ay3ogqrCsq20E1G1rXUtWwBUBaC9nAVjwRqo/+mUh01e4vfTnjWCXZt4MqfWGvadd287tKPhWmQ41GoLIhk57jp9KBL+eLhX47qE5TBSVDaiqqCLCb35tOg+pvALU3opLdanM7qLI37r18Jbu74ZuN7+38HahDsX/DQ7O3gyrfWUNVJUUVPg6dv6aOQe0722/NzFKxQajCB9wOaiv/9FRVu2XjTe0c2mGc6VC9ASfiMDOfag1CNTaG2mL3VNVQkaNjDTIR6XcwJ0J1Btxdb17mPyCDUMm2UE20Rr1VqtpW1CYsoUaH/lBoIlRr4IRvNBWqSL7Y5C+Zf+f7VqraVlTZp4p6DZfNgErCXu/fnhymHttZmz+wUTmd+/IARE7Ha3KaN+b27f8i9zcVqtPn8Fa5vwlQu90zf8Cl6lY3TUBV6Jd8KjPqad7zMQequFmrD9U41Kpq6JFhqEex7G4GVeHW1OVN2mVNJSvv9u57mAVVWHn3x/EmZv6rsF7+Hl2oXlVf2AyqwuU01R0pssUHdYFeVW2eDFXoUJuqN6lGZdg+FP1p3YRKUH+nzaCq9nF1l5+MXyye0ug0oTfBLKhVOYp16n4DLhWl9MBcv9l60Ybq1edTnLqLNTK2g2qq8JnKFvIWoqp0GlbD92q9sdksqM/L1J3Ah2Nf3b+vP91QWFQ3979lL5V6tfJU/qPbIm3VqfXQ9+uRqJFNZkJ9lU6j12WUHSpqWLYyadApU23aSe0ooZoq95G131rlKcd6qUagVk0Y471UKlaOQSZArc+wbAWVqb14TxHo0K77Q6V2KtGuNxtq9zIGGYca+V7P4JE2UW/zc1TqdlFiUNX/0e7Aj9ds03q8hKI/VTIC5Qe+LuNXyif1p7aOUQ4fpJTeKH3UtofT1onVPQW69DLfMUJJi4aqoX6F/A/bLl78nVA/0QAAAABJRU5ErkJggg==;" parent="1" vertex="1">
          <mxGeometry x="380.5" y="269.75" width="79" height="40.5" as="geometry" />
        </mxCell>
        <mxCell id="nIec03bCgh2vJCHFv9-q-26" style="edgeStyle=orthogonalEdgeStyle;rounded=0;orthogonalLoop=1;jettySize=auto;html=1;exitX=0.5;exitY=1;exitDx=0;exitDy=0;entryX=0.75;entryY=0;entryDx=0;entryDy=0;" parent="1" source="nIec03bCgh2vJCHFv9-q-11" target="nIec03bCgh2vJCHFv9-q-1" edge="1">
          <mxGeometry relative="1" as="geometry">
            <Array as="points">
              <mxPoint x="750" y="370" />
              <mxPoint x="628" y="370" />
            </Array>
          </mxGeometry>
        </mxCell>
        <mxCell id="nIec03bCgh2vJCHFv9-q-11" value="Auth0&amp;nbsp;&amp;nbsp;" style="rounded=0;whiteSpace=wrap;html=1;align=right;" parent="1" vertex="1">
          <mxGeometry x="690" y="260" width="120" height="60" as="geometry" />
        </mxCell>
        <mxCell id="nIec03bCgh2vJCHFv9-q-12" value="" style="shape=image;html=1;verticalLabelPosition=bottom;verticalAlign=top;imageAspect=1;aspect=fixed;image=data:image/webp,UklGRqYNAABXRUJQVlA4TJkNAAAvWEI2EAdBkG1TlTPcn28KAoEkiv2l9hEIJAnOvw6BAEUP8n8lCyRYHUPjDxKQo6BtG6bhT7tnYxARE6BPyoQXwGKvkA86pSXbbtvKYoeXI4OySGr+w+xgk8ABbgFfEf2HBEly2+ZODuMAOpMaAgfQT1iybVWNwksgiDD/6SZpzz33Cv0Z0X9IkOTGbQaKzxQl2xQPEACpb5jJXFTJGCyZ/cHI/oDkZslYYH4SG0hUS8aJEgnn43cHrmFxB8xAP4fdG/AA2nPCYDRjAB3r4+DqD4yDlz8wEnoDQ6Er8BECFLoCZzDHGx2BW/gxVkfABMYhPn6AGw7/lJcfYMVhNFw8gdHw9ARGw+4IDIh+wO6AG9CfNXfAivPD5w6YMHeXyeoo4o9atTpKOAzbrI6Qdxxh7+J6AMNKOQdg4NMIHsCw6AHsBgjYZcsPUEIn02x1FNEtvlkdJQzkOayOcEMPPQHBBkuDD+u2PaMXorA8w5fOsT2Do+3ZGRCqTKk3oIjCyt3qKKEU/GldlHxMv9gWRRx54eNt9UK6Mu7v2pyFGDqbs5BzClZnGWhztjzC99IyPcruV3rZFmX3hF+ti5LHscbHtog92lAMWiWgx0fLwcULWOMCu7N/ZPw/mP1b5jKeq1tg9yrBfYs/2j/if1tJ7i9Jpc1HPf8YsAX3t/g610h3t9KtvXI4RNJf/8vhjwBHcvcS+vaZ1bs/RHi2A1cm/QDwBH+6snm+H7EeyK6lvKmGzaGSd04PTipf/oHnU9pd3xP1Ad/2TXUM+V2Nw/iqF16iuua9aWZyHEnTemNLGhbAiE4kY8vM6FgSp+nuoWgNLGNvk9YL2oM8ieuJCi1FC+x6J5S+XGAeNB9eV1R6wHjPeO8jJS8XjAfyhjzvReGIByAeTizbJTu2HJj5+65vD+4KWDxiOjnnZnnDBWJKKcIddsxhpyZdY4MsHnESyHvlArsGbf4MWYIvXJgxdF80fbNrrGO0hD1O2CtQjvXt75Yw1MWKqM7hjFpG6aAdo4MjyPVAWr2T9hwqlF3vNIgDyvIVTbVmHWNHlf4X8uv4FWj97xXu6TFMz+htTmTzA/aJ3hSMVMfHe+MdIwekUk4bJSN5dSK5HqlcMu5vpp9KWzru6LME/DZQN2JukwE1P1gdi4GOI6mn0uL5vmcFdKsndixrBexpRVuAkrvyvM9dNWk2UKICWvdPrPRcK1hPw4R7WoK7/U1BEZkqjbkzBnKrCWzv7ZIC0IjlQAZNdVRTafEC77ID9jwvJNGlAtVKYKrZ/JTFijijZtIM8Q3RrAvWMHWPNORe4xjHu8JkNeLdkQLwgWhFy4YM6LS3ArX04+qzozgc16aMNMMv3BxB83Es0R0yyM5RBf3n8kzkHVWSZqjvKFFoIJXRDnkjLVpy9n8DVZtWKi1O1kvFbRW3Dcs7JLL74BF8uis4PW+u2CUF8Xx74KWG3yCT7iZcwaf3dI3cpIs0G2wKtlVBBXPtj4Z81fSOfGPw9FW+NJMRHRlqE3S2yv7I/MrBY82URjGaLOogzdDvNBdJa6YAie4LwSl88Nsv4VZ9ppBK2x+K3JFbhRMd6wTnNVWh9zrumFFpcqUZfggacF1UwbTdcSI/gkID5rxDG5W29ocoMFv1wo7q7qga3nZI2Up0su9FvjSbUP6grQpz+8IZvV8aP0LQaMGkO4W/Kiott0dAyGpZaf1sGIbRcdSi1yP+FbT0JP9nUjkH7phXacKkmYTg9QsiN9F0Kw2npFv5u3BOv4LY78W/PpKcmbKlvgxqfapSa9+hh0qL9yMjeJqMwq2TiLkhiVpQ1XGkkuiwm2YeRDWriiq3vwkSlSZGmkkJie5VrrVdKD1JYpa+0a6lSoujSyFSaQpNf3ZjtiofZ1omV5IGD5msEUeVX66+DiqVJkGaCQrh+LYw0UVSCiP8HykthkihU2nw0kxSCCxyCLY8i0M7SFs2wvE6CFUauDSTGPJWMubWuHAIWpNEGZNlHGyKTDVHhUszqKGyMqtnaaL7wBVG3lQicM1knoRIMwGnkmA/DYqHx0Zw3SjhdRCrNExpJjFQzzKKTmksHPm56YzgaONt0RJAaSYyJL6w8kQ3gqtiMoWK8PLvk2yVdkicyYdqTA/FUVowIQXSHfLx7ANdtCRVudNiYPFGWJFKVoo/3j8TsZ7gsFKzyetZVgSrtLWLWkAuS4XBSNQ2o/8KMLmeP/uvDA6h3LQoLiis5GGUHXjeLzETryC2yipPDaJhB8YgAefdhF40ysYbMNupcqYeU2u1gXGUVgTLcGIiD7tNigbrT2H+a30Th1Y/E42jtEAar/v9tklSYZUgWchRgHZGDUCiC6TzKodqk8DLKqznZicOJV0+HEdp4ZxAq8OAYjZD3CqsxOgQ3FbkdQZOJNF1M4UEMxr/cPKyBpjwWiUeYVs3LwCbg99h42UglPOeKhZegjhK/x4K75rEFMAbrtUDQRBHaZt4GEK9zcpIKOgtNazoJXGUNoJFk+jyLW5O1gAXuFY7NfPX3UPQjRych+saYGSOAtke4IIoyuOmaEbczhrnwjUrWjcwoZ98dMoy9kQ3Qn+12gfx48+6yBU/DKdN2wfksFxMH8iqw1reT5Gvaeoc+0DfdLWg7cFdh6sPWET21TnU8RtBQ4HGOdTMxnAo0bR4dVzfBoRiTyGqrqaOIeHFKfC3qjt9yp54KwSNGLgB0KnDdXgsAn+rigHiNpDHT9KLlrowsQZYIZZhoJ7oLpCr7xX+UzMvJcQ4xf1WDWeBtgvUo0ZEwQc5dLhqx0Xcb9XbBMeeqJQp/Ggat6xEORJx732YwG0DhTd4g09Nh6vBvKSdfXc2ODeBXGtxKM75s+lw/aqrsL6FJ1IedIIgM0VtAkIOnWzt2V9EYE5xOjg/eaYQTfqk5POxJ07y01NYfZywvD81w2LiDMV58S8k0S3x8tzRpEM4wpaJmbjWVt9A8QYcyKhl6ronMlXpP8SD5Tfkzm/pP9fwgsTCFoKpgNWM8/fERbWsyOKSYQHk+MrKtQKITUTVJFYcpS3xisS76eE2MkvDjWVu8p0KEVtmuifqOUBKORZNI95lwg+4opVp2PrbQ7EEhg2xapKey7aUuEY447cd5HKM2AgNqrtovLgWAHSLGZoEr6HNRKJI3bVommOdmZFS46xIQrQM/nIcFBvbEM0wL2iNmV5sBN5YI5y7wnKvgo6uQfBcH2sSlZYInwK2qnkqiLVJ6N0IWsTH0DgmJI3l2FJQOA3vR4lUWhXRvRFc6JidyruSZmC6snNauPkUXgnKrIy/pNmy6mwL66FSaRudO8OrmmSnu3ExFm8/W3JOkfIYLoIJeCUuUDUjcDzmj8oKAl7sD9hiEg0pSIL0WiZmO2DfEZ5RUbMMIb+G86+PGcHI5Kgc/JxJdqE7P/ZEHKxw8YZUugUMxl37R2qO/CV/VywEc/9I69Z5RTSs+OdTnwW0J4+Ccq5z89aJzi4mbtxDwGv1UB6EsmJpreDCVM0z+G55fkgaZhTMsbAeYpWWUDuhyecANtWTzcZ4+Udgxi/v1NWMrlPSjHa2dE4s9MGZRMyUoc/0xiiPwErsgyZstHeWekVzBQIYVNoO2M2fMu2hMdPEtzHGM7CxVWU9wzUhzXDGjOXpl0WukK4Mw9r4ZrbFqz4CE1vVNplZqaUZj0pr+OsfG/orV5ZXPjNyODyLGR7Nqym8q5VgnJBmQLOlHwLXfOT0HdbyS2Hz7b4qF11W1KN5dc/ZUX8xpNBzrowlcccRcbWlwvVCWbB65W/HAHKg6CIy7KN/cViJ1enap3hGmiHNlt4mlazcVunrQirCDNChL0B4SYBPBLgqC94aWpR2FQmlGatKOyQuMJEm3IUo9iB5BHYuhIqZaBz69UIqXqdnbONMKM14VVoGLa0jWkWiiUMn5gKfL7hqFatmvHEYD9DzM7Av/zT34Z8osr01uUojwxP1ek3qqdGfrfcCf8Tj9ufPN59x3hw6PUuF3MVfhqACuD/AxqphSkDGK8142aeBuclBciPCGpW+6uJ6pC8ptU/9kYp3/v0M53jst5jTt2TBR2fxs5VKmgGotDJsZI2Y59hfNJqF9WCotD70keUQDHtLJNIMRKWdYw+GzGuOtwcva5rrNVSCJSPW90wgzYBUWh/5rzqY9pbmF9aDpNLOgQfT3uq0NMNSacv4g00b22alGZpK6+86Xxj3lielGZxKOy26oXH73uakGZhKe4PNUA98Z5WOKWkGqdJenT8ybJb+I09IM0iV9rO9O835MHSOu3FJM8U1La6D17Zsz+2e33hcmsGqtPRuk4Ztol+PtGytpmDfHGhfSvNWzniICvu+2Vx/QgF61tSZbjmxBTPn4Glv7FPgBs/SRGzL1m823LUQtZuh2XPr8GeRDJ+5CpRmhlZp4qSZrVWaLGnmPiqtb8EJchcjzfxHpR3Db2Z1lSZAmnmMSmNNJ2x7lQYtzdxGpREs2cADVBqqNPMBlcYtzVwjd0Bp5gkqDU2a+YJKEyvNbDzgEUea+Y9K24Oj5AEhzfxCpbmBNIO8SlE6aeYwubNIMzfZWOOTZh6i0pikmZeoNA5p5j8qbQ/ukwexNPMWlUYpzdxHpfU1uFHuRNLMf1TaEXwp4zUtzfxHpd3DW/MflbYHp8rD6lsLAA==;" parent="1" vertex="1">
          <mxGeometry x="700" y="278.65" width="62" height="22.7" as="geometry" />
        </mxCell>
        <mxCell id="nIec03bCgh2vJCHFv9-q-25" style="edgeStyle=orthogonalEdgeStyle;rounded=0;orthogonalLoop=1;jettySize=auto;html=1;exitX=0.5;exitY=1;exitDx=0;exitDy=0;entryX=0.5;entryY=0;entryDx=0;entryDy=0;" parent="1" source="nIec03bCgh2vJCHFv9-q-14" target="nIec03bCgh2vJCHFv9-q-1" edge="1">
          <mxGeometry relative="1" as="geometry" />
        </mxCell>
        <mxCell id="nIec03bCgh2vJCHFv9-q-14" value="Gmail&amp;nbsp; &amp;nbsp;&lt;br&gt;API&amp;nbsp; &amp;nbsp; &amp;nbsp;" style="rounded=0;whiteSpace=wrap;html=1;align=right;" parent="1" vertex="1">
          <mxGeometry x="540" y="260" width="120" height="60" as="geometry" />
        </mxCell>
        <mxCell id="nIec03bCgh2vJCHFv9-q-15" value="" style="shape=image;html=1;verticalLabelPosition=bottom;verticalAlign=top;imageAspect=1;aspect=fixed;image=data:image/png,iVBORw0KGgoAAAANSUhEUgAAAMAAAADACAMAAABlApw1AAAB7FBMVEUAAADFISHFIR7FIR7FIh/FIh/FIh/GIh/EIh/GIh/GIR/DJh74vAj6vAX7vQT7vAT7vAT7vAT7vAT7vAT6vAX6uwX/vQCqAADFIR7FIx/FIiD/qgD8vAP7vAT7vQTDJCDFIiDFIh/EIR37vAT7vAT7vAT7uwS2JCTGIh7FIh/FIh/MGhr/swD8vQP7vAT8uwP/tgDIISHFIh/CJB75vAb7vAT/vADFIyPGIh/EIyD8vAP7vAT/uQDGHBzFIh/FIh78vAP7vAT/xgDGIh/8vAPEIR38vgO/QADFIh/7vQT/vwDFIiD6vQXFIh/7vATDIiLoQjTmTTPrSTL4vAfFIiDqQzXrQzXtQzf6uwXEISDqQzXqQzb6vAXFIh/qQzX7vATFIh/7vATFIh/7vARgb8XAJijzvAdhrkFChfRNfeKwMkLbuRFGqkw0qFNFg/CVR26wtSI4qVFyYKV+sDZXddFVrEZHgOqVR249qU9zYKRYddBHgexyYadQe96vM0NOq0lDhPKKUICitCc3qFJChfQ0qFNChfQ0qFNChPQ0qFNDhfM0p1NAifZChfQ0qFM3pFJChfM1qFJFifUxp05BhvVChfQ0qFM0p1JBhPMzp1NGhPZBhPNDhfRChfVChfU0qFM0qFM0qVQ1qFQ1p0+ZyLbaAAAApHRSTlMAH2WozfD/9NGtayIia63R9P/wzahlHwNUwMoDVMrAQNLYPT3Y0kAHl/6WCgqW/pcHF9QqKtQXFtVfX9UWCdCfn9AJnJxOTgTX1wRhYcXFJqcKpyZp/9QqaaH0X6HPn8/j4/b2zf//z//n///p//n+//n+//7////////9+e389fbS1/fy8tjYtbVraxz7+xybmxoaTv39Tm5uHWq02/Pz27RqHZOk+HoAAAQTSURBVHgB7MEBAQAQAAAgAP4PBm5U4QMAAAAAIKZcamt9zE0sPWA5AARBAK2nXiP22rZtI/b9j5E8BjUTJ/3P8EfHoGx8YnJq2uFwutweL1ri8wekStDvg5pQOOKoMhMOoanZOakzvwAli0uOOssraGx1Tdj6xiYUbG3vONjuHhrYD4rRwSEG7ujYYRQ5gdXpmVgMnWPALqYdFpdXsLi+EbvbzYH2uXPY3T/A7FGIQiPqw55g9CxMoxH1YS8weH0TptGI+rD3D7BPYdxIpw/5AvsWM2qk0If8gPyuS0v+/tFH/1FHS3ZiqBeX1iSSKfRNKplwtCaNehlpTSKRzaFPctlEwtGaPOoVpDWJsuJ/X/oUE4mSiPZAPIb2BAAv9pHTahAEQHj39u+IBMNgM+Scw8U5gKGkkvVX72ekkr5NtwhQjAQfEbC39X5fBAhGio8IONj64J8IEIwUHxHwf+cAz4j59AGeEfPpAzwj5tMHeEbMpw/wjJhPH+AZAZ8+wDMCPn2AZwR8+gBg5Pn0AczI8+kDmJHn0wcwI8+nD2BGnk8fwIw8nz6AGTGfBQIOVzqAGXk+IuDoeOvfcbKWAczI8xEBm9O5HTDOzlUAMxJ8fMDF5fwtYIyrlQggRoKPDzi6nvOPgHGzFgHASPDRAZvb+XfAuLv3AcyI+fiAi4dJAWM8rlQAM2I+EMB8MGA8rUUAMmI+EMB8IAAYQQAwIj4QwHwgABhBADAiPhDAfCAAGEEAMCI+EMB8IAAYQQAxAj4QwHwgABhhADACPhAAfDAAGHEAMAI+HAB8OAAY+QA/wEcEAKMiAPhwADBKA4APBwCjNAD4cAAwSgOADwcAozQA+HAAMEoDgA8HAKM0APhwADBqA4APBwCjOAD4cAAwKgOQDwcAoywA+HAAz/N9FYB8OIDnZVUEMJ+dAsbr2/IBm/e5XMD4+Fw64Ot77hrAYxcUuwDNuXCAXRHtCrp8gFzS5REgCJBnEneGiQIEI8UnCxCMDJ8uQDASfOIAz4j59AGeEfPpAzwj5tMHeEbMpw/wjJhPH+AZIZ8+wDNCPn2AZ4R8+gDPCPn0AZ4R8ukDPCPk0wd4RsinD/CMkE8f4Bkhnz7AM0I+fYBnhHz6AM+I+PQBnhHx6QM8I+LTB3hGwKcP8IyITx/gGRGfPsAzAj59gGeEfPoAzYj59AGCkeATBghGgk8YIBgJPmGAYWT49AELzE/7c3HEMBAAQXCD1xnFaMZE/Ra+teXpDJoAAQIECBAgQIAAAQIECPgH3AKRVyBoaOMV2Gpo5xXYa+jgFThqKE6cAmmmkdwpUGisjHwCodKEunEJtJ0mnRqPQHvWjDpyCIROs8o8WXsgLSotuVxv98daA8/X+/MVAAAAAAAAAAD4dz9+DDi7eJ9I6wAAAABJRU5ErkJggg==;" parent="1" vertex="1">
          <mxGeometry x="545" y="260" width="61" height="61" as="geometry" />
        </mxCell>
        <mxCell id="nIec03bCgh2vJCHFv9-q-18" value="&lt;font style=&quot;font-size: 9px&quot;&gt;Gestisce l&#39;invio delle mail automatiche&lt;/font&gt;" style="text;html=1;strokeColor=none;fillColor=none;align=center;verticalAlign=middle;whiteSpace=wrap;rounded=0;" parent="1" vertex="1">
          <mxGeometry x="600" y="321" width="90" height="30" as="geometry" />
        </mxCell>
        <mxCell id="nIec03bCgh2vJCHFv9-q-20" value="&lt;font size=&quot;1&quot;&gt;Gestire la registrazione, il login e funzione ad essi associate&lt;/font&gt;" style="text;html=1;strokeColor=none;fillColor=none;align=center;verticalAlign=middle;whiteSpace=wrap;rounded=0;" parent="1" vertex="1">
          <mxGeometry x="750" y="320" width="120" height="45" as="geometry" />
        </mxCell>
        <mxCell id="nIec03bCgh2vJCHFv9-q-21" value="&lt;font style=&quot;font-size: 9px&quot;&gt;Conservare i dati, relativi a negozi, prodotti, volantini, sconti, recensioni&lt;/font&gt;" style="text;html=1;strokeColor=none;fillColor=none;align=center;verticalAlign=middle;whiteSpace=wrap;rounded=0;" parent="1" vertex="1">
          <mxGeometry x="450" y="325" width="130" height="35" as="geometry" />
        </mxCell>
        <mxCell id="UhhDmNzhHIbdkrsBUTea-3" style="edgeStyle=orthogonalEdgeStyle;rounded=0;orthogonalLoop=1;jettySize=auto;html=1;exitX=1;exitY=0.5;exitDx=0;exitDy=0;" parent="1" source="UhhDmNzhHIbdkrsBUTea-1" target="nIec03bCgh2vJCHFv9-q-1" edge="1">
          <mxGeometry relative="1" as="geometry" />
        </mxCell>
        <mxCell id="UhhDmNzhHIbdkrsBUTea-1" value="Databse&lt;br&gt;degli utenti&lt;br&gt;iSpesa" style="rounded=0;whiteSpace=wrap;html=1;align=right;" parent="1" vertex="1">
          <mxGeometry x="339.5" y="390" width="120" height="60" as="geometry" />
        </mxCell>
        <mxCell id="UhhDmNzhHIbdkrsBUTea-2" value="" style="shape=image;html=1;verticalLabelPosition=bottom;verticalAlign=top;imageAspect=1;aspect=fixed;image=data:image/png,iVBORw0KGgoAAAANSUhEUgAAAVQAAACvCAMAAACVbtbpAAAAGXRFWHRTb2Z0d2FyZQBBZG9iZSBJbWFnZVJlYWR5ccllPAAAA2hpVFh0WE1MOmNvbS5hZG9iZS54bXAAAAAAADw/eHBhY2tldCBiZWdpbj0i77u/IiBpZD0iVzVNME1wQ2VoaUh6cmVTek5UY3prYzlkIj8+IDx4OnhtcG1ldGEgeG1sbnM6eD0iYWRvYmU6bnM6bWV0YS8iIHg6eG1wdGs9IkFkb2JlIFhNUCBDb3JlIDUuMy1jMDExIDY2LjE0NTY2MSwgMjAxMi8wMi8wNi0xNDo1NjoyNyAgICAgICAgIj4gPHJkZjpSREYgeG1sbnM6cmRmPSJodHRwOi8vd3d3LnczLm9yZy8xOTk5LzAyLzIyLXJkZi1zeW50YXgtbnMjIj4gPHJkZjpEZXNjcmlwdGlvbiByZGY6YWJvdXQ9IiIgeG1sbnM6eG1wTU09Imh0dHA6Ly9ucy5hZG9iZS5jb20veGFwLzEuMC9tbS8iIHhtbG5zOnN0UmVmPSJodHRwOi8vbnMuYWRvYmUuY29tL3hhcC8xLjAvc1R5cGUvUmVzb3VyY2VSZWYjIiB4bWxuczp4bXA9Imh0dHA6Ly9ucy5hZG9iZS5jb20veGFwLzEuMC8iIHhtcE1NOk9yaWdpbmFsRG9jdW1lbnRJRD0ieG1wLmRpZDpEM0U0ODlGRkY1MjA2ODExODIyQUNFOEFCMjIyRjYzRiIgeG1wTU06RG9jdW1lbnRJRD0ieG1wLmRpZDpENzUwOERDMjJGRjcxMUUzOTYxMDgzOEY5NEY0MkUzMyIgeG1wTU06SW5zdGFuY2VJRD0ieG1wLmlpZDpENzUwOERDMTJGRjcxMUUzOTYxMDgzOEY5NEY0MkUzMyIgeG1wOkNyZWF0b3JUb29sPSJBZG9iZSBQaG90b3Nob3AgQ1M2IChNYWNpbnRvc2gpIj4gPHhtcE1NOkRlcml2ZWRGcm9tIHN0UmVmOmluc3RhbmNlSUQ9InhtcC5paWQ6RDRFNDg5RkZGNTIwNjgxMTgyMkFDRThBQjIyMkY2M0YiIHN0UmVmOmRvY3VtZW50SUQ9InhtcC5kaWQ6RDNFNDg5RkZGNTIwNjgxMTgyMkFDRThBQjIyMkY2M0YiLz4gPC9yZGY6RGVzY3JpcHRpb24+IDwvcmRmOlJERj4gPC94OnhtcG1ldGE+IDw/eHBhY2tldCBlbmQ9InIiPz4Dh2wQAAAAZlBMVEUAAAD///8AK2QAK2QAK2QAK2QAK2QAK2QAK2QAK2QAK2QAK2QAK2QAK2QAK2QAK2QAK2QAK2QQOG4gRncwU4FAYItQbZRge55wiKiAlbKPorufsMWvvc+/ytjP1+Lf5ezv8vX///+X3zc0AAAAEXRSTlMAABAgMEBQYHCAj5+vv8/f7/4ucL8AAA4eSURBVHja7Z3bmqI6EEazgQgBOfwgotIoef+X3BcBJRDONtNK6qpn9ENZViV1SkH+0/J2IRqBhvq1UMn3iEXpyDs01HlisghAZGuobyPqHFGJqaG+w+bZMcRLHA11FUzm+xHawjTUhcbuBS2USayhrtqQwrZyxuecXzXU5Ui9imOaXa8/RVEURfHg5flenjTUZWIIpOfbg0uSpSkvr7HeqBaIEwFIbiVvSZadztmD80dxBqiGOkdNjwCSnHckP53P8SnnnPMzYGioM1yoAMDlpaX3ovr7Ht/SS5ZwzjlPcNQR1QymERAXFdBHlgBIOeecl0me3JNzzjnnd0CHqfOYnmo1zcU+L6Bm1/Qnu8Xib4Q6oTKLaVYbflE5T2fOOS9ORfpI8gvnnD/GFFVD7WPKkwpqzjnnSZEWt2v2wznnKXyd+pu874dNpveKacY553l2T3l6P5Wc8ysiQ0OdKkFjPeW8PANAfOWcc366X3Iec3DOc0QW0VAnigfEksP/KIrKD3ic+OlxT3k6jamGWssBwJ2rpXzwCy8ynvJsClMNtU6hRMCND0rJ7yeEE5hqqJX4tUM6ID8xAoNoqFOFAfFjRFHPgDvtahoqIYSYtT/aL0UyVkPVUOca/wUILKKhzsigAhg0/vIEHA2ioc4IpSLgOsT0ngDejAtqqIQcgWSQaTyPqYZKCAXw806mGioh4fAuVZ7mMtVQCRvZpc6Y6PJrqFJ8ehnyT4HIJBrqXBc1LocV1SEa6uzk1FAs9cBonl9DVWT7T0PuVD5akNJQ2+ICKPig9UdEQ51X6kOzLKWS2e6UhhqM7FK8WGL9+4bKRjN+15GuKQ1VZfwjGb8UAdFQ5xr/SLp/0ZK6Z6guRmt990VL6o6hHuo+qQG5AZaGOi/mT8oRqBlANNTpoVQw0DzRaFLzNdRZ2f6x+inn5bJ9aq9QPQwn/J6uv6OhzmGajTLl15FTKBrqfKY8XbZP7RLqVKY8XhRP7RGqEWCkzN9w/T0NdZLPHwHxzxSmPF+4T+0NqnEEkD4mMeXZsnhqZ1ANFgHxjU+UZEnWf2dQDRYBOD+mMi0xclpSQxVI04JPlp+lS+peoFIPM5Fyflm6pO4CajW6Yx5Szk9Ll9Tvh2oxMV0mu89Dujib8u1QTdsT42UUcyamLKm2htoDFHFW8AWSjYxJ2xtUyo7Ra+5RyRdJMnaqfz9QTbsxoSu9FnypPJYvqV8F1XKeCorkvAJoVfOz9w7VsL2owbPka+W8fEn9Eqh2PYIzvfys51k5VIuX1G+AarpCR5N3Aa3Sft5+oVKhpPHlzt8pZ+CwV6jUFxN5fvh7pcSidr9vgGr6Qkkf/N2SY2F56tOhGu7SCHSS9bt7hGpHPZMO32T9h/1BNf3XgKP3yw0LK/4fDdWJ5OGRb5ZkcSXlc6HOqokukAKLKykfC5VGQJzz35MzVsSonwnVAXAuf5HpA6scqg+EanhzSveLJMMqh+rzoBoBkNx/lekDK63/06AaAZCW/NcVdZX1fxhUI5jYBLlWUd39QN2CKU+BFUn/z4PqTZhy+A4fdWFX+kdCPUijeJfJz8gmVyb7gmpEiNfu+1cUow1Uqzf/T4LqTjj5NG7bip+lUSYsAKSrEtSfBdUaP0o6ZRNSRaXPWOIRA3mxI/MPRoZITDsZAVXy9NwYlpbz+36gOsMD+aa69YkqeZq+Xs8557uBakXrjZ/HSpcsqUlXTHk68mC0b4FqBOPnyKdU8xSxQ1GvCTVTfllT8/8gqB5QrFbUs/JU2llALU/PI8A/+4j9nYln9Eared2f5gEAJS8aS0O51qf6CKj2G7wpLh7PWapyUrhlaA6pSVcG/58Alb0hPBXVvO5cv8fruajXZjH1+NVQDSd8D9MrVIMTshfUUloovrVGZVHHDYA+pvf8mqav5++maXa9FcXQZOnuktpQ1LO8eXlfBNWkNmOe33ymdnLtMi3zLIZa4vSsgPs4AUCsTJ5WH1PKbpb1HVAPzG8TSs83RQbk/iLqN6T1bPMkTc9XIVkavx6D1kmeeocQkEtf6fxB1H8RqlW1l6dper1er3lRFD3dEkUKAKHHqKVQdMrY0Q97tLhQJE99UzzdTzrAVmAN1T8C1TwCcXab4OA/UgChY42vx8zvPElekTz16ii47sZ+PDewyDY+Gaod4TQpXVJeAHh0xl7H3NeycOsaf70fGb5Csd1PhupNDZjyGPAWODv0wNCZP1vKbWiHtl779JPN35kyeKuy/GDhnR66cX8KhJIqWu6La+CYn737GwHSfLyH7xojWtyL1x3nnynTppQy5tB16dS/Yf6vBS3uLUEXJyBYrD1WR1Hz1S0Tf373t48BQj/qreuXF6zKHPvtuZ452sb/fVDrxEnPOOM8xrSHa/ZtVO0ZlPn64v5HQLX8viA/T1a4N1XRUDaBG7A2u/8RUFnPsLgyTwCEq7SKyQNoywy/afx/Bqrhq5v4qyifrQJgyc/wu58ATHr88YdD9VQlucftJBIe65pwSCAlp28it2KTr4fa6XJ4/FxEq9hqpMRFowerEL9TdCDfD9UHcHpm6l6555CtXvkOjaC/qC7sW2QHUJX5jMB9w72b0TOpn1dIQ5uQPUAlhLrNhEbku7b5lhusH+TzUye2fx3pHyunUHpgjB0ofZ+34wL4Ka7P9cSjhOwL6vvlIK0nR9vY5FO/G6rxKltF3kZEvx5qNQQoOjrWlh/73VBNxpiqPqihfp5oqBrqnDQKpfuAao1vwNab9mhvSTuEQSUZ86qfYv5LqP5oYth8Uz7eFjH+ggpBq059ZLQ/CdQMqem/ghqOdih6q4aXyBma+SN7qLpb6HgYhQogPPwbqKM1DHPtwZBfgapOGCjgG/8AqjnaTOth2VP1lBWU+dM6e6GKPrYxqPUivilUOlZuM1cPhXhuOcGSkgl9ajellFKHea+UZCevjWfVnFKnit3c7aE6YweUPawbXdak6jA2O3lIFZ9P3box0+6DSkg9zFHc3aZQ2Uhl2HzDsfBVQtU/qh2qqKLV33F83t2mUP0RaB5+tcdhMVRiiG8mLydtqMZzFd8UqsjteyOJOufvQa393mAIqlDVzaFieOyD2LHf5FO9GWpFlQ1BZfXNbQnVrEsawxllpU9l2MewCl2qXdiktE7qWdWfdgAgsNsvS5epHv4ReIdGZDoBKnEBIDLGoFobQ316geaQoqp8KtPreuLsxd8Xf1ZviszWy42lsXmAJWIdjkNQxeLFBqC6/8L8HQBB1KeqRgQgVN4V6zjZlgJqDZ6RHqhO1I6TrDlQKYDmI6o6UIP69S2hMgCu26eqDACo4lVVT0BEO1BtWdE7UA1PEQLZM6AK5+XQC5X+E5fKB8DMnlXVECrc9amMoO7CpwYhtH74xKEFNYwAeNS0qRpq+zLVSmDPgHqQB9a1oIoPoFtDDQBQYaWmWlFNErR9qgpG46iImJoeHWWobee8DVW8p3EOwxCLCpsOlUTSii9DtQKgPu2yJVSxOapVtVJUoc3dgqjsu9ZHyVpQHdIP1VV4a9azJ2YiVDmKblzQqOwn2jyhYlZfSamqrLIdt6VgjrLvsbZlCapP+qHSwctMheqgeRAYAHzpcHIdcW0IlVabo0pVjahiwGSfSviu3WSmGXWhHgaghupQzQhnQaXSit/NDhrbJ6md+jYVqloravu2WN8wU9qBGpJ+qPZrvWtVxGZBNaVfuJtNtbdPUrNaQbuq+lRUcZempGGR0bu+NaG6A1CDZ0ygjJOmQpX3JoWHVuVcN4T62oM6qspediVZGO3PBZhtqId+qGb/8F5jHdTQ9+Vz8J6xLdTgaTttVX0pqnBbHAm20R81NqHSfqhDyfHjKqj1P0zKwlfssSHUxp23VLWhqLJP5Q+UmVvOP/pfJt5Aucqeu6ay3ogqrCsq20E1G1rXUtWwBUBaC9nAVjwRqo/+mUh01e4vfTnjWCXZt4MqfWGvadd287tKPhWmQ41GoLIhk57jp9KBL+eLhX47qE5TBSVDaiqqCLCb35tOg+pvALU3opLdanM7qLI37r18Jbu74ZuN7+38HahDsX/DQ7O3gyrfWUNVJUUVPg6dv6aOQe0722/NzFKxQajCB9wOaiv/9FRVu2XjTe0c2mGc6VC9ASfiMDOfag1CNTaG2mL3VNVQkaNjDTIR6XcwJ0J1Btxdb17mPyCDUMm2UE20Rr1VqtpW1CYsoUaH/lBoIlRr4IRvNBWqSL7Y5C+Zf+f7VqraVlTZp4p6DZfNgErCXu/fnhymHttZmz+wUTmd+/IARE7Ha3KaN+b27f8i9zcVqtPn8Fa5vwlQu90zf8Cl6lY3TUBV6Jd8KjPqad7zMQequFmrD9U41Kpq6JFhqEex7G4GVeHW1OVN2mVNJSvv9u57mAVVWHn3x/EmZv6rsF7+Hl2oXlVf2AyqwuU01R0pssUHdYFeVW2eDFXoUJuqN6lGZdg+FP1p3YRKUH+nzaCq9nF1l5+MXyye0ug0oTfBLKhVOYp16n4DLhWl9MBcv9l60Ybq1edTnLqLNTK2g2qq8JnKFvIWoqp0GlbD92q9sdksqM/L1J3Ah2Nf3b+vP91QWFQ3979lL5V6tfJU/qPbIm3VqfXQ9+uRqJFNZkJ9lU6j12WUHSpqWLYyadApU23aSe0ooZoq95G131rlKcd6qUagVk0Y471UKlaOQSZArc+wbAWVqb14TxHo0K77Q6V2KtGuNxtq9zIGGYca+V7P4JE2UW/zc1TqdlFiUNX/0e7Aj9ds03q8hKI/VTIC5Qe+LuNXyif1p7aOUQ4fpJTeKH3UtofT1onVPQW69DLfMUJJi4aqoX6F/A/bLl78nVA/0QAAAABJRU5ErkJggg==;" parent="1" vertex="1">
          <mxGeometry x="330.5" y="399.75" width="79" height="40.5" as="geometry" />
        </mxCell>
        <mxCell id="UhhDmNzhHIbdkrsBUTea-4" value="&lt;font style=&quot;font-size: 9px&quot;&gt;Contiene i dati&lt;br&gt;relativi agli utenti&lt;br&gt;&lt;/font&gt;" style="text;html=1;strokeColor=none;fillColor=none;align=center;verticalAlign=middle;whiteSpace=wrap;rounded=0;" parent="1" vertex="1">
          <mxGeometry x="439" y="381" width="130" height="35" as="geometry" />
        </mxCell>
        <mxCell id="_Msof_zoBDnTRIg0G-24-2" style="edgeStyle=orthogonalEdgeStyle;rounded=0;orthogonalLoop=1;jettySize=auto;html=1;exitX=0;exitY=0.5;exitDx=0;exitDy=0;entryX=1;entryY=0.5;entryDx=0;entryDy=0;" edge="1" parent="1" source="_Msof_zoBDnTRIg0G-24-1" target="nIec03bCgh2vJCHFv9-q-1">
          <mxGeometry relative="1" as="geometry" />
        </mxCell>
        <mxCell id="_Msof_zoBDnTRIg0G-24-1" value="API dei&lt;br&gt;negozi" style="rounded=0;whiteSpace=wrap;html=1;align=center;" vertex="1" parent="1">
          <mxGeometry x="780" y="390" width="80" height="60" as="geometry" />
        </mxCell>
        <mxCell id="_Msof_zoBDnTRIg0G-24-3" value="&lt;font size=&quot;1&quot;&gt;Aggiornare i&amp;nbsp;dati dei prodotti/negozi/volantini/&lt;br&gt;sconti&lt;br&gt;&lt;/font&gt;" style="text;html=1;strokeColor=none;fillColor=none;align=center;verticalAlign=middle;whiteSpace=wrap;rounded=0;" vertex="1" parent="1">
          <mxGeometry x="660" y="420" width="120" height="45" as="geometry" />
        </mxCell>
      </root>
    </mxGraphModel>
  </diagram>
</mxfile>
